<?xml version="1.0" encoding="UTF-8" standalone="no"?>
<!-- Created with Inkscape (http://www.inkscape.org/) -->

<svg
   version="1.1"
   id="svg2"
   width="553.94666"
   height="556.10669"
   viewBox="0 0 553.94666 556.10669"
   sodipodi:docname="3861593.eps"
   xmlns:inkscape="http://www.inkscape.org/namespaces/inkscape"
   xmlns:sodipodi="http://sodipodi.sourceforge.net/DTD/sodipodi-0.dtd"
   xmlns="http://www.w3.org/2000/svg"
   xmlns:svg="http://www.w3.org/2000/svg">
  <defs
     id="defs6" />
  <sodipodi:namedview
     id="namedview4"
     pagecolor="#ffffff"
     bordercolor="#000000"
     borderopacity="0.25"
     inkscape:showpageshadow="2"
     inkscape:pageopacity="0.0"
     inkscape:pagecheckerboard="0"
     inkscape:deskcolor="#d1d1d1" />
  <g
     id="g8"
     inkscape:groupmode="layer"
     inkscape:label="ink_ext_XXXXXX"
     transform="matrix(1.3333333,0,0,-1.3333333,0,556.10667)">
    <g
       id="g10"
       transform="scale(0.1)">
      <path
         d="m 4134.23,2229.95 c -0.53,-2.74 -0.95,-5.57 -1.58,-8.3 -21.34,-117.2 -56.44,-224.61 -103,-323.09 -49.92,-105.63 -113.1,-201.06 -186.98,-287.14 -70.94,-82.72 -151.77,-156.92 -240.27,-223.55 -84.6,-63.8 -176.14,-120.55 -272.62,-171.22 -87.77,-46.13 -179.73,-87.22 -274.32,-123.7 -15.56,-6.09 -31.22,-11.98 -46.88,-17.76 -77.04,-28.38 -155.24,-52.77 -234.27,-73.15 -91.76,-23.86 -184.56,-42.47 -278.11,-56.13 -95.21,-14.082 -191.18,-23.019 -287.45,-27.219 -95.85,-4.101 -192.02,-3.679 -287.98,1.161 -101.95,5.25 -203.69,15.347 -304.8,29.957 -105.83,15.339 -210.83,35.73 -314.57,60.741 -31.11,7.36 -62.11,15.24 -93.01,23.54 -83.35,22.39 -169.22,45.83 -254.663,72.74 -125.598,39.51 -250.567,86.38 -365.446,148.19 -78.09,42.04 -151.66,90.81 -217.664,148.93 -34.371,30.38 -66.847,62.85 -97.219,97.32 -3.574,3.99 -7.039,7.99 -10.402,12.09 -91.969,107.21 -163.4374,232.17 -208.4179,365.86 -28.2773,83.97 -46.24607,171.21 -52.23826,259.71 -3.47265,50.24 -3.050778,100.48 1.05079,150.5 11.24607,141.47 51.49997,280.42 115.92537,406.96 47.825,94.28 109.204,181.62 181.938,258.13 24.484,25.76 50.129,49.61 76.613,71.68 110.887,92.91 237.324,157.13 365.863,218.83 101.422,48.66 204.11,95.64 301.54,153.87 30.27,17.97 59.91,37.1 88.92,57.59 46.87,33.21 90.7,70 133.05,108.68 65.59,59.8 127.7,123.92 191.82,185.61 42.35,40.88 85.65,80.72 131.38,117.61 28.48,23.02 57.91,44.67 88.17,64.84 80.51,54.34 166.8,99.22 256.98,134.64 94.07,37.31 192.44,64.32 292.71,81.25 100.69,17.13 203.48,24.06 305.95,20.91 158.82,-4.94 316.99,-34.05 466.44,-87.13 24.39,-8.72 48.57,-17.97 72.43,-27.96 74.83,-31.1 147.56,-68.63 217.76,-111.62 94.6,-58.01 184.46,-126.22 267.91,-202.63 81.25,-74.21 156.49,-156.18 224.08,-244.26 67.16,-87.34 126.86,-180.56 177.73,-278 53.18,-101.73 96.7,-207.89 128.85,-316.67 32.38,-109.2 53.39,-220.92 61.49,-333.28 8.09,-112.88 3.05,-226.49 -16.71,-338.53"
         style="fill:#93d222;fill-opacity:1;fill-rule:nonzero;stroke:none"
         id="path12" />
      <path
         d="m 2077.48,915.891 c -52.24,0 -104.51,1.328 -156.71,3.961 l 31.36,153.178 h 260.21 l -3.59,-154.339 v 0 c -43.7,-1.871 -87.48,-2.8 -131.27,-2.8 m 418.72,30.019 -20.4,127.12 h 57.79 c 16.86,-36.38 35.47,-76.339 52.47,-112.421 -29.87,-5.418 -59.82,-10.308 -89.86,-14.699 v 0 M 611.762,1242.67 c -7.871,4.05 -15.696,8.16 -23.481,12.35 l 46.746,35.31 -23.265,-47.66 m 2990.638,145.2 -75.21,62.05 -201.49,400.7 h -153.73 c -2.39,6.15 -4.74,11.6 -7.1,16.16 -2.11,4.06 -4.21,7.44 -6.65,10.1 -1.22,1.32 -2.55,2.49 -4.13,3.39 -1.55,0.9 -3.43,1.52 -5.43,1.52 h -0.01 c -0.01,0 -0.02,0 -0.02,0 -1.31,0 -2.63,-0.28 -3.83,-0.76 v 0 c -11.82,-4.84 -21.41,-14.53 -28.34,-22.92 -2.21,-2.68 -4.13,-5.24 -5.73,-7.49 h -69.28 l -795.8,656.48 1597.02,-895.68 C 3771.73,1528.7 3690.9,1454.5 3602.4,1387.87 v 0 M 262.996,1513.36 v 0 C 171.027,1620.57 99.5586,1745.53 54.5781,1879.22 L 2245.65,2507.1 935.867,1850.62 h -27.398 l -1.442,-2.95 -7.433,-15.23 -636.598,-319.08 M 2680.5,1850.62 h -58.92 l -375.93,656.48 523.54,-623.18 c -2.96,-0.88 -5.97,-1.8 -9.02,-2.77 -25.93,-8.25 -54.53,-19.69 -79.67,-30.53 m -219.4,0 h -110.09 l -105.36,656.48 226.7,-645.4 c -3.48,-2.77 -7.26,-6.52 -11.25,-11.08 m -230.7,0 h -119.12 l 134.37,656.48 -15.25,-656.48 m -250.19,0 h -148.77 l 414.21,656.48 -265.44,-656.48 m -340.25,0 h -5.08 c -14.05,11.79 -34.55,26.19 -50.87,26.19 -3.61,0 -7.01,-0.71 -10.1,-2.3 -8.47,-4.36 -18.51,-13.48 -28.29,-23.89 h -91.47 c -6.65,4.5 -13.62,8.73 -20.74,12.35 -8.9,4.5 -18.05,8.09 -27.2,9.96 l 839.44,634.17 -605.69,-656.48 m 2389.69,47.94 -1784,608.54 1887,-285.45 c -21.34,-117.2 -56.44,-224.61 -103,-323.09 v 0 M 0,2207.2 v 0 c 0.00390625,27.45 1.14844,54.88 3.39063,82.23 11.24607,141.47 51.49997,280.42 115.92537,406.96 47.825,94.28 109.204,181.62 181.938,258.13 24.484,25.76 50.129,49.61 76.613,71.68 110.887,92.91 237.324,157.13 365.863,218.83 101.422,48.66 204.11,95.64 301.54,153.87 30.27,17.97 59.91,37.1 88.92,57.59 46.87,33.21 90.7,70 133.05,108.68 65.59,59.8 127.7,123.92 191.82,185.61 42.35,40.88 85.65,80.72 131.38,117.61 28.48,23.02 57.91,44.67 88.17,64.84 80.51,54.34 166.8,99.22 256.98,134.64 94.07,37.31 192.44,64.32 292.71,81.25 84.96,14.45 171.43,21.65 257.93,21.65 16.01,0 32.02,-0.25 48.02,-0.74 158.82,-4.94 316.99,-34.05 466.44,-87.13 24.39,-8.72 48.57,-17.97 72.43,-27.96 74.83,-31.1 147.56,-68.63 217.76,-111.62 94.6,-58.01 184.46,-126.22 267.91,-202.63 81.25,-74.21 156.49,-156.18 224.08,-244.26 67.16,-87.34 126.86,-180.56 177.73,-278 53.18,-101.73 96.7,-207.89 128.85,-316.67 32.38,-109.2 53.39,-220.92 61.49,-333.28 2.45,-34.17 3.7,-68.41 3.69,-102.65 v 0 c 0.01,34.24 -1.24,68.48 -3.69,102.65 l -1905.29,-61.38 1843.8,394.66 c -32.15,108.78 -75.67,214.94 -128.85,316.67 L 2245.65,2507.1 3782.87,3496.43 c -67.59,88.08 -142.83,170.05 -224.08,244.26 L 2245.65,2507.1 3290.88,3943.32 c -70.2,42.99 -142.93,80.52 -217.76,111.62 -23.86,9.99 -48.04,19.24 -72.43,27.96 l -755.04,-1575.8 288.6,1662.93 c -16,0.49 -32.01,0.74 -48.02,0.74 -86.5,0 -172.97,-7.2 -257.93,-21.65 l 17.35,-1642.02 -310.06,1560.77 c -90.18,-35.42 -176.47,-80.3 -256.98,-134.64 L 2245.65,2507.1 1459.06,3750.78 c -64.12,-61.69 -126.23,-125.81 -191.82,-185.61 L 2245.65,2507.1 1045.27,3398.9 C 947.84,3340.67 845.152,3293.69 743.73,3245.03 L 2245.65,2507.1 377.867,3026.2 c -26.484,-22.07 -52.129,-45.92 -76.613,-71.68 C 228.52,2878.01 167.141,2790.67 119.316,2696.39 L 2245.65,2507.1 3.39063,2289.43 C 1.14844,2262.08 0.00390625,2234.65 0,2207.2"
         style="fill:#c4e45e;fill-opacity:1;fill-rule:nonzero;stroke:none"
         id="path14" />
      <path
         d="m 2245.65,2507.1 v 0 m 0,0 v 0 l 1313.14,1233.59 c 81.25,-74.21 156.49,-156.18 224.08,-244.26 L 2245.65,2507.1"
         style="fill:#e7f4b9;fill-opacity:1;fill-rule:nonzero;stroke:none"
         id="path16" />
      <path
         d="m 2245.65,2507.1 v 0 m 0,0 v 0 l 1714.95,711.33 c 53.18,-101.73 96.7,-207.89 128.85,-316.67 L 2245.65,2507.1"
         style="fill:#e7f4b9;fill-opacity:1;fill-rule:nonzero;stroke:none"
         id="path18" />
      <path
         d="m 4132.65,2221.65 -1887,285.45 1905.29,61.38 c 2.45,-34.17 3.7,-68.41 3.69,-102.65 0,-78.87 -6.62,-157.76 -20.4,-235.88 -0.53,-2.74 -0.95,-5.57 -1.58,-8.3 v 0"
         style="fill:#e7f4b9;fill-opacity:1;fill-rule:nonzero;stroke:none"
         id="path20" />
      <path
         d="m 3842.67,1611.42 -1597.02,895.68 1784,-608.54 c -49.92,-105.63 -113.1,-201.06 -186.98,-287.14 v 0 M 2245.65,2507.1 v 0"
         style="fill:#e7f4b9;fill-opacity:1;fill-rule:nonzero;stroke:none"
         id="path22" />
      <path
         d="m 3570.28,1364.22 -43.09,85.7 75.21,-62.05 c -10.6,-7.99 -21.3,-15.87 -32.12,-23.65 m -528.83,486.4 h -29.47 c -5.15,12.72 -10.13,22.23 -14.66,26.68 -5,4.87 -12.57,6.85 -21.59,6.85 -31.33,0 -80.07,-23.94 -98.35,-33.53 h -3.54 c -2.52,3.67 -5.06,7.17 -7.6,10.47 -11.74,15.11 -23.47,26.33 -36.43,30.26 -3.78,1.11 -7.98,1.55 -12.59,1.55 -13.02,-0.03 -29.63,-3.56 -48.03,-8.98 l -523.54,623.18 795.8,-656.48 m -795.8,656.48 v 0"
         style="fill:#e7f4b9;fill-opacity:1;fill-rule:nonzero;stroke:none"
         id="path24" />
      <path
         d="m 2621.58,1850.62 h -53.02 c -21.17,11.56 -45.04,20.53 -65.73,20.53 -9.48,0 -18.29,-1.88 -25.88,-6.26 -1.46,-0.84 -3,-1.91 -4.6,-3.19 l -226.7,645.4 375.93,-656.48 m -375.93,656.48 v 0"
         style="fill:#e7f4b9;fill-opacity:1;fill-rule:nonzero;stroke:none"
         id="path26" />
      <path
         d="m 2208.75,918.691 3.59,154.339 h 263.46 l 20.4,-127.12 c -95.21,-14.082 -191.18,-23.019 -287.45,-27.219 m 142.26,931.929 H 2230.4 l 15.25,656.48 105.36,-656.48"
         style="fill:#e7f4b9;fill-opacity:1;fill-rule:nonzero;stroke:none"
         id="path28" />
      <path
         d="m 1920.77,919.852 v 0 c -79.37,4.089 -158.61,11.109 -237.52,20.918 9.26,11.152 18.27,29.07 27.41,50.921 10,24.009 19.91,52.649 29.09,81.339 h 212.38 l -31.36,-153.178 m 190.51,930.768 h -131.07 l 265.44,656.48 -134.37,-656.48"
         style="fill:#e7f4b9;fill-opacity:1;fill-rule:nonzero;stroke:none"
         id="path30" />
      <path
         d="m 1831.44,1850.62 h -191.48 l 605.69,656.48 -414.21,-656.48"
         style="fill:#e7f4b9;fill-opacity:1;fill-rule:nonzero;stroke:none"
         id="path32" />
      <path
         d="m 588.281,1255.02 v 0 c -78.09,42.04 -151.66,90.81 -217.664,148.93 -34.371,30.38 -66.847,62.85 -97.219,97.32 -3.574,3.99 -7.039,7.99 -10.402,12.09 l 636.598,319.08 -264.567,-542.11 -46.746,-35.31 m 746.189,595.6 h -142.72 c -0.38,20.28 -2.03,38.17 -5.66,52.05 -2.11,7.98 -4.84,14.69 -8.76,19.86 -3.85,5.14 -9.41,8.78 -15.9,9.13 v 0 l -1.73,0.06 c -0.03,0 -0.07,0 -0.1,0 -8.66,0 -16.28,-4.25 -22.3,-10.8 -10.62,-11.57 -18.03,-30.35 -24.56,-53.44 -1.51,-5.4 -2.96,-11.03 -4.36,-16.86 H 935.867 L 2245.65,2507.1 1406.21,1872.93 c -4.5,0.93 -9.01,1.44 -13.48,1.45 -3.02,0 -6.04,-0.24 -9.01,-0.75 -15.84,-2.77 -32.31,-10.61 -49.25,-23.01"
         style="fill:#e7f4b9;fill-opacity:1;fill-rule:nonzero;stroke:none"
         id="path34" />
      <path
         d="m 54.5781,1879.22 v 0 C 26.3008,1963.19 8.33203,2050.43 2.33984,2138.93 0.765625,2161.69 -0.0078125,2184.46 0,2207.2 c 0.00390625,27.45 1.14844,54.88 3.39063,82.23 L 2245.65,2507.1 54.5781,1879.22"
         style="fill:#e7f4b9;fill-opacity:1;fill-rule:nonzero;stroke:none"
         id="path36" />
      <path
         d="M 2245.65,2507.1 119.316,2696.39 c 47.825,94.28 109.204,181.62 181.938,258.13 24.484,25.76 50.129,49.61 76.613,71.68 L 2245.65,2507.1"
         style="fill:#e7f4b9;fill-opacity:1;fill-rule:nonzero;stroke:none"
         id="path38" />
      <path
         d="M 2245.65,2507.1 743.73,3245.03 c 101.422,48.66 204.11,95.64 301.54,153.87 l 1200.38,-891.8"
         style="fill:#e7f4b9;fill-opacity:1;fill-rule:nonzero;stroke:none"
         id="path40" />
      <path
         d="m 2245.65,2507.1 -978.41,1058.07 c 65.59,59.8 127.7,123.92 191.82,185.61 L 2245.65,2507.1"
         style="fill:#e7f4b9;fill-opacity:1;fill-rule:nonzero;stroke:none"
         id="path42" />
      <path
         d="m 2245.65,2507.1 -567.04,1426.13 c 80.51,54.34 166.8,99.22 256.98,134.64 L 2245.65,2507.1"
         style="fill:#e7f4b9;fill-opacity:1;fill-rule:nonzero;stroke:none"
         id="path44" />
      <path
         d="m 2245.65,2507.1 v 0 l -17.35,1642.02 c 84.96,14.45 171.43,21.65 257.93,21.65 16.01,0 32.02,-0.25 48.02,-0.74 L 2245.65,2507.1"
         style="fill:#e7f4b9;fill-opacity:1;fill-rule:nonzero;stroke:none"
         id="path46" />
      <path
         d="m 2245.65,2507.1 v 0 l 755.04,1575.8 c 24.39,-8.72 48.57,-17.97 72.43,-27.96 74.83,-31.1 147.56,-68.63 217.76,-111.62 L 2245.65,2507.1"
         style="fill:#e7f4b9;fill-opacity:1;fill-rule:nonzero;stroke:none"
         id="path48" />
      <path
         d="m 3322.46,1845.36 v 1561.72 c 0,52.1 -42.23,94.33 -94.33,94.33 H 1006.08 c -52.096,0 -94.33,-42.23 -94.33,-94.33 V 1845.36 h 2410.71"
         style="fill:#17282f;fill-opacity:1;fill-rule:nonzero;stroke:none"
         id="path50" />
      <path
         d="M 3173.28,1994.88 H 1065.82 V 3359.12 H 3173.28 V 1994.88"
         style="fill:#ffffff;fill-opacity:1;fill-rule:nonzero;stroke:none"
         id="path52" />
      <path
         d="M 911.75,1845.36 558.938,1122.44 H 3685.98 l -363.52,722.92 H 911.75"
         style="fill:#ffffff;fill-opacity:1;fill-rule:nonzero;stroke:none"
         id="path54" />
      <path
         d="m 911.75,1845.36 -4.723,2.31 -356.504,-730.48 H 3694.5 l -368.8,733.43 H 908.469 l -1.442,-2.95 4.723,-2.31 v -5.25 H 3319.22 L 3677.45,1127.7 H 567.352 l 349.121,715.36 -4.723,2.3 v -5.25 5.25"
         style="fill:#17282f;fill-opacity:1;fill-rule:nonzero;stroke:none"
         id="path56" />
      <path
         d="m 550.398,1073.03 h 3143.72 v 44.207 H 550.398 Z"
         style="fill:#17282f;fill-opacity:1;fill-rule:nonzero;stroke:none"
         id="path58" />
      <path
         d="m 3032.78,1717.26 h -94.16 l 27.85,-88.39 h 97.22 l -30.91,88.39 m -1970.34,85.13 -33.11,-74.63 h 146.83 l 31.11,74.63 h -144.83 m 120.65,-85.13 -36.89,-88.39 h 162.07 l 34.06,88.39 h -159.24 m -41.3,-98.9 -36.89,-88.29 h 165.43 l 33.95,88.29 h -162.49 m 173.73,0 -33.95,-88.29 h 176.26 l 26.28,88.29 h -168.59 m 38.05,98.9 -33.95,-88.39 h 167.64 l 26.28,88.39 h -159.97 m 32.79,85.13 -28.69,-74.63 h 158.91 l 22.18,74.63 h -152.4 m 138,-85.13 -26.17,-88.39 h 121.08 l 19.44,88.39 h -114.35 m 25.33,85.13 -22.17,-74.63 h 113.51 l 16.29,74.63 h -107.63 m 99.74,-85.13 -19.34,-88.39 h 122.66 l 11.56,88.39 h -114.88 m 18.71,85.13 -16.4,-74.63 h 114.04 l 9.77,74.63 h -107.41 m 118.03,0 -9.88,-74.63 h 117.93 l 6.83,74.63 h -114.88 m 361.14,0 h -113.1 l -3.68,-74.63 h 117.51 l -0.73,74.63 m 118.97,0 h -108.47 l 0.74,-74.63 h 111.73 l -4,74.63 m 4.52,-85.13 h -112.15 l 0.95,-88.39 h 116.04 l -4.84,88.39 m 372.8,85.13 h -119.71 l 11.45,-74.63 h 122.13 l -13.87,74.63 m 15.76,-85.13 h -122.44 l 13.55,-88.39 h 125.28 l -16.39,88.39 m 112.46,85.13 h -117.61 l 13.88,-74.63 h 122.86 l -19.13,74.63 m 21.86,-85.13 h -123.71 l 16.4,-88.39 h 129.91 l -22.6,88.39 m -115.92,-98.9 h -125.71 l 13.56,-88.29 h 128.43 l -16.28,88.29 m 141.26,0 h -130.65 l 16.4,-88.29 h 136.84 l -22.59,88.29 m 81.76,184.03 h -118.13 l 19.13,-74.63 h 122.44 l -23.44,74.63 m 26.8,-85.13 h -123.17 l 22.69,-88.39 h 128.33 l -27.85,88.39 m 105.2,0 h -94.16 l 27.85,-88.39 h 97.22 l -30.91,88.39 m -29.73,85.13 h -91.23 l 23.54,-74.63 h 93.75 l -26.06,74.63 m 124.01,0 h -112.87 l 26.07,-74.63 h 115.82 l -29.02,74.63 m 114.67,-3.15 -1.37,3.15 h -102.05 l 29.01,-74.63 h 104.89 l -30.48,71.48 m 35,-81.98 h -105.31 l 34.37,-88.39 h 108.57 l -37.63,88.39 m -318.04,-98.9 h -128.96 l 22.6,-88.29 h 134.21 l -27.85,88.29 m -1681.11,-98.8 -35.1,-91.23 h 185.08 l 27.12,91.23 h -177.1 m 188.14,0 -27.12,-91.23 h 136.84 l 19.97,91.23 h -129.69 m 140.41,0 -20.07,-91.23 h 140.31 l 11.98,91.23 h -132.22 m 142.84,0 -12.09,-91.23 h 129.8 l 8.41,91.23 h -126.12 m 136.63,0 -8.3,-91.23 h 127.69 l 4.63,91.23 H 1885.6 m 264.54,0 h -130.01 l -4.52,-91.23 h 135.48 l -0.95,91.23 m 131.38,0 h -120.87 l 0.94,-91.23 h 124.87 l -4.94,91.23 m 138.84,0 h -128.23 l 4.84,-91.23 h 132.95 l -9.56,91.23 m 136.21,0 h -125.7 l 9.56,-91.23 h 130.12 l -13.98,91.23 m 139.48,0 h -128.76 l 13.98,-91.23 h 131.69 l -16.91,91.23 m 293.76,0 h -134.75 l 23.44,-91.23 h 140.11 l -28.8,91.23 m 112.13,0 h -101 l 28.7,-91.23 h 104.15 l -31.85,91.23 m 216.94,98.8 h -109.1 l 34.37,-88.29 h 112.36 l -37.63,88.29 m 42.04,-98.8 h -112.77 l 35.52,-91.23 h 116.24 l -38.99,91.23 m -124.02,0 h -123.92 l 31.85,-91.23 h 127.49 l -35.42,91.23 m -2299.744,0 -40.465,-91.23 h 154.399 l 38.04,91.23 H 937.156 M 3404.33,1417.82 h -116.67 l 42.56,-109.41 h -11.29 l -42.51,109.41 H 892.066 L 843.613,1308.41 H 3450.99 l -46.66,109.41 m -2303.84,101.74 -38.05,-91.23 h 168.79 l 35.1,91.23 h -165.84 m 2098.05,98.8 h -120.03 l 30.8,-88.29 h 123.49 l -34.26,88.29 m -131.17,0 h -97.53 l 27.74,-88.29 h 100.69 l -30.9,88.29 m -223.03,-98.8 h -137.68 l 16.92,-91.23 h 144.1 l -23.34,91.23 m 315.84,197.7 h -116.25 l 30.9,-88.39 h 119.61 l -34.26,88.39 m -618.74,-98.9 h -120.98 l 9.25,-88.29 h 125.28 l -13.55,88.29 m -131.59,0 h -123.08 l 4.74,-88.29 h 127.69 l -9.35,88.29 m 116.45,98.9 h -116.24 l 9.25,-88.39 h 120.56 l -13.57,88.39 m -13.03,85.13 h -112.25 l 7.88,-74.63 h 115.83 l -11.46,74.63 m -113.83,-85.13 h -118.02 l 4.72,-88.39 h 122.66 l -9.36,88.39 m -8.93,85.13 h -113.72 l 3.99,-74.63 h 117.5 l -7.77,74.63 m -114.36,-184.03 h -116.44 l 0.84,-88.29 h 120.44 l -4.84,88.29 m -126.96,0 h -124.12 l -4.41,-88.29 h 129.37 l -0.84,88.29 m -254.55,0 -7.99,-88.29 h 123.49 l 4.31,88.29 h -119.81 m 253.51,98.9 h -118.14 l -4.42,-88.39 h 123.5 l -0.94,88.39 m -236.59,85.13 -6.83,-74.63 h 115.19 l 3.78,74.63 h -112.14 m -7.78,-85.13 -8.09,-88.39 h 119.29 l 4.41,88.39 h -115.61 m -141.89,-98.9 -11.56,-88.29 h 125.7 l 8.1,88.29 h -122.24 m -134.11,0 -19.44,-88.29 h 131.37 l 11.67,88.29 h -123.6 m 147.14,98.9 -11.66,-88.39 h 121.81 l 8.1,88.39 h -118.25 m -279.88,-98.9 -26.28,-88.29 h 128.96 l 19.34,88.29 h -122.02 m -514.165,0 -39.098,-88.29 h 151.773 l 36.89,88.29 H 980.875 m 43.825,98.9 -39.095,-88.39 h 149.245 l 36.89,88.39 H 1024.7 m 193.92,85.13 -31.11,-74.63 h 158.81 l 28.69,74.63 h -156.39"
         style="fill:#17282f;fill-opacity:1;fill-rule:nonzero;stroke:none"
         id="path60" />
      <path
         d="m 1238.38,1417.82 -2,-5.25 -9.77,3.78 0.52,1.47 h 11.25"
         style="fill:#17282f;fill-opacity:1;fill-rule:nonzero;stroke:none"
         id="path62" />
      <path
         d="m 1058.02,1417.82 -1.05,-2.52 -6.09,2.52 h 7.14"
         style="fill:#17282f;fill-opacity:1;fill-rule:nonzero;stroke:none"
         id="path64" />
      <path
         d="M 2709.13,2431.2 H 1545.11 c -60.41,0 -109.38,48.98 -109.38,109.38 v 420.96 c 0,60.41 48.97,109.38 109.38,109.38 h 1164.02 c 60.41,0 109.39,-48.97 109.39,-109.38 v -420.96 c 0,-60.4 -48.98,-109.38 -109.39,-109.38"
         style="fill:#93d222;fill-opacity:1;fill-rule:nonzero;stroke:none"
         id="path66" />
      <path
         d="m 2709.13,2431.2 v 7.89 H 1545.11 c -28.05,0 -53.37,11.35 -71.76,29.73 -18.38,18.39 -29.73,43.71 -29.73,71.76 v 420.96 c 0,28.05 11.35,53.37 29.73,71.77 18.39,18.37 43.71,29.72 71.76,29.72 h 1164.02 c 28.05,0 53.38,-11.35 71.77,-29.72 18.38,-18.4 29.73,-43.72 29.73,-71.77 v -420.96 c 0,-28.05 -11.35,-53.37 -29.73,-71.76 -18.39,-18.38 -43.72,-29.73 -71.77,-29.73 v -7.89 -7.89 c 64.77,0.01 117.27,52.51 117.28,117.27 v 420.96 c -0.01,64.77 -52.51,117.26 -117.28,117.27 H 1545.11 c -64.77,-0.01 -117.26,-52.5 -117.27,-117.27 v -420.96 c 0.01,-64.76 52.5,-117.26 117.27,-117.27 h 1164.02 v 7.89"
         style="fill:#1f2a30;fill-opacity:1;fill-rule:nonzero;stroke:none"
         id="path68" />
      <path
         d="M 1597.03,2141.07 H 2659.1 c 67.5,0 110.05,72.64 77.04,131.51 l -531.03,947.22 c -33.73,60.17 -120.35,60.17 -154.08,0 l -531.04,-947.22 c -33.01,-58.87 9.55,-131.51 77.04,-131.51"
         style="fill:#17282f;fill-opacity:1;fill-rule:nonzero;stroke:none"
         id="path70" />
      <path
         d="m 1649.96,2197.3 v -3.94 h 956.22 c 15.14,-0.02 28.26,6.58 37.43,16.66 9.19,10.08 14.57,23.64 14.57,37.84 0,8.84 -2.1,17.92 -6.66,26.49 L 2173.4,3171.8 c -9.82,18.49 -27.62,27.93 -45.33,27.9 -17.72,0.03 -35.52,-9.41 -45.34,-27.9 l -478.11,-897.45 c -4.57,-8.57 -6.67,-17.65 -6.66,-26.49 0,-14.2 5.38,-27.76 14.57,-37.84 9.17,-10.08 22.28,-16.68 37.43,-16.66 v 3.94 3.94 c -12.83,0.01 -23.74,5.49 -31.61,14.09 -7.85,8.6 -12.52,20.33 -12.51,32.53 0,7.6 1.79,15.37 5.74,22.78 l 478.11,897.46 c 8.51,15.93 23.4,23.69 38.38,23.72 14.97,-0.03 29.87,-7.79 38.38,-23.72 l 478.11,-897.46 c 3.95,-7.41 5.74,-15.19 5.74,-22.78 0,-12.2 -4.66,-23.93 -12.51,-32.53 -7.87,-8.6 -18.78,-14.08 -31.61,-14.09 h -956.22 v -3.94"
         style="fill:#ffffff;fill-opacity:1;fill-rule:nonzero;stroke:none"
         id="path72" />
      <path
         d="m 2111.6,2490.35 h 26.81 c 20.62,0 37.96,19.34 40.28,44.95 l 26.41,289.93 c 2.73,30.06 -16.07,56.41 -40.28,56.41 h -83.92 c -24.51,0 -43.42,-26.97 -40.2,-57.33 l 30.71,-289.93 c 2.67,-25.2 19.86,-44.03 40.19,-44.03"
         style="fill:#ffffff;fill-opacity:1;fill-rule:nonzero;stroke:none"
         id="path74" />
      <path
         d="m 2176.86,2387.6 c 0,-30.06 -24.37,-54.43 -54.43,-54.43 -30.06,0 -54.43,24.37 -54.43,54.43 0,30.06 24.37,54.43 54.43,54.43 30.06,0 54.43,-24.37 54.43,-54.43"
         style="fill:#ffffff;fill-opacity:1;fill-rule:nonzero;stroke:none"
         id="path76" />
      <path
         d="m 2701.08,1729.08 45.56,11.9 17.13,-6.41 60.02,-140 -122.71,134.51 M 3512.94,682.602 c -83.03,127.179 -65.17,146.199 -80.82,200.218 -15.56,53.918 -98.58,171.84 -126.23,221.34 -27.64,49.51 -39.93,303.75 -39.93,303.75 7.35,50.56 -20.81,85.98 -20.81,85.98 0,0 6.51,49.81 9.03,117.71 2.63,67.89 -23.23,89.12 -37.52,109.73 -14.19,20.7 -57.49,144.93 -69.89,154.81 -12.4,9.88 -36.9,-36.47 -36.9,-36.47 -11.87,-53.92 42.57,-157.86 42.57,-157.86 l -21.12,-124.65 -65.37,93.75 c 0,0 -42.04,200.32 -68.63,226.39 -26.7,26.06 -127.18,-30.59 -127.18,-30.59 0,0 -12.3,16.5 -41.84,39.63 -29.42,23.02 -214.61,-67.48 -214.61,-67.48 -28.17,26.28 -98.27,68.21 -136.74,46.03 -38.46,-22.17 -127.81,-199.48 -93.54,-221.34 34.27,-21.86 113.25,36.77 113.25,36.77 0,0 100.22,-60.52 117.03,-105.83 16.92,-45.29 59.91,-226.17 64.85,-264.32 4.94,-38.16 -25.65,-134.11 -25.65,-134.11 -44.98,134.95 -201.06,253.08 -256.44,250.77 -55.3,-2.21 -45.73,-39.42 -38.68,-62.64 6.93,-23.33 77.14,-82.19 77.14,-82.19 l 44.35,-91.13 c 0,0 141.15,-308.05 160.92,-340.948 19.65,-32.793 46.03,-34.363 46.03,-34.363 l 303.74,-115.508 c 79.67,-80.512 307,-582.481 307,-582.481 538.66,-121.71063 582.28,201.27 582.28,201.27 0,0 -283.15,236.59 -366.29,363.762"
         style="fill:#ffffff;fill-opacity:1;fill-rule:nonzero;stroke:none"
         id="path78" />
      <path
         d="m 3310.69,99.8008 c -0.02,0.0312 -64.27,143.2892 -135.94,290.3012 -35.83,73.507 -73.51,147.949 -105.98,205.968 -16.24,29.012 -31.17,53.91 -43.99,72.621 -6.42,9.36 -12.3,17.168 -17.63,23.231 -5.38,6.047 -10.05,10.387 -14.87,12.848 -15.21,7.601 -40.77,17.332 -71.59,28.421 -46.18,16.61 -103.97,36.149 -154.48,55.071 -25.25,9.449 -48.68,18.75 -67.87,27.41 -19.17,8.629 -34.18,16.758 -42.09,23.269 -4.78,3.84 -12.11,13.618 -20.35,27.36 -29.12,48.269 -72.25,145.669 -111.6,235.359 -19.69,44.87 -38.47,87.85 -54.2,121.98 -7.87,17.07 -14.97,31.92 -21.07,43.73 -6.13,11.83 -11.12,20.52 -15.29,25.76 -14.53,18.12 -34.43,33.47 -50.38,48.72 -7.98,7.61 -14.94,15.16 -19.78,22.75 -4.86,7.61 -7.57,15.09 -7.58,23.01 0.01,6.6 1.87,13.7 6.57,21.76 2.37,4.05 5.76,7.04 10.44,9.18 4.68,2.13 10.67,3.32 17.8,3.31 14.4,0.02 33.3,-4.85 54.48,-14.97 63.66,-30.33 147.64,-107.39 202.82,-232.9 0.88,-2.01 2.91,-3.25 5.09,-3.13 2.19,0.11 4.07,1.56 4.73,3.65 0.02,0.08 6.48,20.37 12.94,47.22 6.46,26.88 12.97,60.23 12.99,86.98 0,3.83 -0.13,7.53 -0.43,11.06 -1.66,19.67 -10.85,60.57 -21.77,104.82 -10.9,44.17 -23.52,91.35 -31.98,122.41 -7.01,25.76 -19.96,49.42 -37.73,69.32 -14.58,16.3 -32.28,34.42 -47.56,44.03 -15.14,9.44 -29.23,16.21 -40.83,25.05 -11.6,8.86 -20.9,19.51 -27.4,37.72 -0.97,2.73 -3.98,4.16 -6.71,3.19 -2.74,-0.97 -4.17,-3.97 -3.2,-6.71 7.08,-20.08 18.16,-32.91 30.95,-42.57 12.8,-9.7 27.12,-16.51 41.62,-25.6 13.43,-8.34 31.08,-26.14 45.29,-42.11 16.7,-18.71 28.85,-40.91 35.43,-65.08 8.44,-31.01 21.05,-78.14 31.92,-122.17 10.87,-43.96 20.03,-85.17 21.5,-103.17 0.26,-3.2 0.39,-6.61 0.39,-10.19 0.02,-25.1 -6.31,-58.06 -12.7,-84.52 -3.18,-13.24 -6.37,-24.88 -8.77,-33.21 -1.19,-4.16 -2.19,-7.49 -2.88,-9.78 -0.7,-2.28 -1.09,-3.5 -1.09,-3.5 l 5.01,-1.6 4.81,2.12 c -37.45,85.11 -87.89,148.48 -136.97,190.67 -24.55,21.1 -48.77,36.9 -70.94,47.49 -22.19,10.57 -42.31,15.97 -59.01,15.99 -8.27,0 -15.74,-1.34 -22.15,-4.25 -6.39,-2.89 -11.68,-7.45 -15.17,-13.45 -5.46,-9.34 -8.01,-18.4 -8,-27.06 0,-10.42 3.65,-19.96 9.23,-28.67 8.4,-13.09 21.11,-24.72 34.2,-36.43 13.09,-11.67 26.59,-23.4 36.62,-35.95 3.68,-4.55 9.64,-14.96 16.78,-29.17 25.16,-49.92 66.53,-147.91 106.63,-237.47 20.06,-44.791 39.81,-87.498 57.14,-121.201 8.66,-16.848 16.72,-31.438 23.97,-42.977 7.29,-11.551 13.56,-19.992 19.53,-24.933 12.59,-10.231 35.87,-21.457 65.23,-33.7 43.97,-18.257 101.23,-38.211 153.04,-56.379 51.76,-18.14 98.26,-34.601 119.72,-45.359 2.56,-1.23 6.81,-4.82 11.68,-10.402 18.54,-20.989 47.16,-68.821 79.02,-128.129 47.88,-89.059 103.61,-204.43 147.34,-297.5 21.87,-46.539 40.74,-87.5 54.14,-116.828 6.7,-14.672 12.04,-26.422 15.7,-34.512 3.65,-8.0898 5.63,-12.4883 5.64,-12.5 1.18,-2.6484 4.29,-3.8398 6.94,-2.6484 2.65,1.1875 3.83,4.2968 2.65,6.9492"
         style="fill:#17282f;fill-opacity:1;fill-rule:nonzero;stroke:none"
         id="path80" />
      <path
         d="m 2492.25,1688.82 c 0,0 -0.71,-0.64 -2.09,-1.83 -4.8,-4.15 -17.38,-14.68 -32.04,-24.23 -14.59,-9.59 -31.53,-17.99 -43.51,-18.48 -3.36,-0.17 -6.43,-0.26 -9.2,-0.26 -5.75,-0.01 -10.24,0.42 -13.5,1.29 -2.46,0.66 -4.2,1.52 -5.52,2.56 -1.96,1.57 -3.37,3.71 -4.46,7.68 -1.06,3.94 -1.58,9.54 -1.58,16.89 -0.02,2.77 0.99,8.17 2.99,14.88 6.97,23.68 25.31,64.55 44.89,100.63 9.79,18.06 19.91,34.98 29.03,48.02 4.56,6.52 8.87,12.07 12.7,16.26 3.79,4.19 7.2,6.99 9.31,8 v 0 c 3.81,1.92 9.14,2.98 15.57,2.97 15.86,0.04 37.89,-6.37 59.2,-16.31 21.33,-9.92 42.11,-23.33 56.05,-36.67 v 0 c 17.27,-16.47 71.01,-72.64 120.24,-124.5 24.64,-25.94 48.18,-50.84 65.56,-69.26 17.38,-18.42 28.58,-30.31 28.6,-30.34 1.77,-1.87 4.6,-2.2 6.74,-0.78 2.14,1.43 2.94,4.17 1.89,6.52 l -66.66,149.54 c -0.76,1.7 -2.37,2.88 -4.22,3.08 l -0.08,-0.69 0.1,0.69 h -0.02 l -0.08,-0.69 0.1,0.69 c -0.35,0.03 -6.79,0.98 -13.31,5.38 -6.52,4.47 -13.32,11.98 -15.49,26.72 -0.41,2.88 -3.08,4.87 -5.95,4.46 -2.87,-0.41 -4.87,-3.07 -4.46,-5.94 2.53,-18.18 12.06,-28.95 20.86,-34.5 8.8,-5.61 16.69,-6.5 17.17,-6.56 l 0.58,5.22 -4.8,-2.14 66.66,-149.54 4.8,2.14 3.83,3.6 c 0,0 -44.91,47.73 -94.2,99.64 -49.31,51.94 -102.87,107.93 -120.6,124.87 v 0 c -15.14,14.43 -36.64,28.22 -58.88,38.59 -22.28,10.32 -45.14,17.24 -63.63,17.29 -7.52,-0.01 -14.41,-1.16 -20.27,-4.08 v 0 c -4.75,-2.42 -9.22,-6.68 -14.22,-12.4 -17.25,-19.96 -39.5,-58.75 -57.81,-96.26 -9.14,-18.74 -17.23,-37.11 -23.08,-52.56 -2.93,-7.74 -5.29,-14.74 -6.95,-20.76 -1.66,-6.04 -2.65,-11.01 -2.67,-15.21 0.01,-6.95 0.4,-12.75 1.49,-17.76 0.82,-3.76 2.06,-7.1 3.95,-10 2.81,-4.39 7.16,-7.43 12.22,-9.02 5.07,-1.63 10.89,-2.14 17.91,-2.15 3.01,0 6.24,0.1 9.73,0.28 9.09,0.48 18.63,3.82 28.08,8.35 28.21,13.65 55.87,38.74 56.07,38.88 2.16,1.95 2.33,5.27 0.38,7.42 -1.94,2.16 -5.26,2.33 -7.42,0.38"
         style="fill:#17282f;fill-opacity:1;fill-rule:nonzero;stroke:none"
         id="path82" />
      <path
         d="m 2873.02,1842.24 c 0,0 0.87,0.56 2.55,1.59 5.87,3.6 21.27,12.69 39.57,20.82 18.26,8.15 39.52,15.22 56.34,15.18 9.28,-0.01 16.93,-2.07 22.5,-6.59 v 0 c 3.39,-2.7 7.16,-8.09 10.68,-15.58 6.21,-13.11 11.84,-32.39 17.2,-54.42 8.06,-33.08 15.63,-72.43 24.81,-107.78 9.27,-35.38 19.8,-66.69 35.3,-84.67 43.67,-50.2 69.66,-86.18 79.42,-133.35 0.59,-2.84 3.37,-4.67 6.21,-4.08 2.84,0.59 4.67,3.37 4.08,6.21 -10.35,50.02 -37.98,87.77 -81.79,138.12 -10.02,11.43 -18.82,31.91 -26.3,56.4 -11.29,36.78 -20.01,82.56 -29.21,121.93 -4.6,19.7 -9.33,37.8 -14.65,52.54 -5.4,14.74 -11.08,26.19 -19.14,32.85 v 0 c -8.09,6.54 -18.36,8.93 -29.11,8.93 -22.36,-0.07 -48.03,-10 -68.51,-19.73 -20.44,-9.75 -35.52,-19.45 -35.64,-19.53 -2.44,-1.57 -3.14,-4.82 -1.57,-7.26 1.57,-2.44 4.82,-3.15 7.26,-1.58"
         style="fill:#17282f;fill-opacity:1;fill-rule:nonzero;stroke:none"
         id="path84" />
      <path
         d="m 3139.04,1552.26 c 0.03,0.14 13.73,60.97 18.6,129.16 0.08,1.19 -0.25,2.39 -0.93,3.37 l -0.42,0.63 c -4.44,6.63 -41.55,65.13 -41.49,141.59 0,4.09 0.1,8.23 0.32,12.42 l -5.25,0.28 4.56,-2.62 0.15,0.26 c 0.82,1.38 4.99,8.23 11.21,15.55 6.2,7.33 14.53,15.03 22.95,18.38 l -0.01,0.02 v -0.02 h 0.01 l -0.01,0.02 v -0.02 l -0.08,0.45 v -0.46 l 0.08,0.01 -0.08,0.45 v -0.46 -0.01 c 0.41,-0.03 2.64,-1.88 4.85,-5.66 4.01,-6.55 8.6,-18 13.47,-31.82 7.36,-20.76 15.57,-47 25.28,-71.94 9.74,-24.94 20.86,-48.59 34.74,-64.58 8.19,-9.34 13.92,-24.03 17.38,-41.4 3.48,-17.37 4.79,-37.32 4.78,-57.09 0,-26.36 -2.29,-52.4 -4.59,-71.82 -1.15,-9.71 -2.3,-17.76 -3.16,-23.38 -0.86,-5.61 -1.42,-8.74 -1.42,-8.75 -0.25,-1.39 0.05,-2.78 0.85,-3.93 l 0.21,-0.31 c 2.33,-3.33 21.91,-33.96 21.79,-64.96 0,-5.51 -0.6,-11.02 -1.97,-16.42 l -0.13,-1.81 c 0,-0.02 6.58,-66.27 14.87,-137.41 4.15,-35.57 8.72,-72.36 13.11,-102.74 2.2,-15.19 4.35,-28.77 6.39,-39.84 2.06,-11.09 3.94,-19.55 5.83,-24.98 3.75,-10.59 12.19,-25.17 23.21,-42.81 16.52,-26.39 38.79,-59.26 58.95,-92.258 20.16,-32.973 38.18,-66.18 46.12,-92.52 10.9,-36.051 17.67,-66.543 30.06,-99.871 12.38,-33.32 30.38,-69.262 63.5,-115.949 16.83,-23.723 47.7,-57.293 84.74,-94.66 111.03,-111.981 277.14,-257.204 277.19,-257.243 2.18,-1.91 5.5,-1.687 7.41,0.5 1.91,2.18 1.69,5.5 -0.5,7.411 -0.01,0.011 -4.6,4.031 -12.79,11.261 -28.69,25.321 -101.33,89.918 -173.96,158.301 -36.31,34.18 -72.62,69.309 -103.4,100.93 -30.78,31.578 -56.07,59.738 -70.12,79.578 -32.69,46.109 -50.13,81.039 -62.22,113.531 -12.09,32.488 -18.82,62.738 -29.85,99.25 -11.35,37.399 -40.21,84.711 -67.91,127.879 -13.85,21.56 -27.41,42.01 -38.31,59.43 -10.89,17.37 -19.15,31.91 -22.2,40.72 -1.51,4.27 -3.42,12.58 -5.41,23.41 -7.02,38.03 -15.61,107.94 -22.41,168.18 -3.4,30.13 -6.36,57.87 -8.47,78.07 -2.11,20.21 -3.37,32.84 -3.37,32.87 l -5.23,-0.52 5.09,-1.29 c 1.61,6.35 2.29,12.74 2.29,19 -0.02,18.8 -6.03,36.47 -11.94,49.54 -5.92,13.07 -11.81,21.55 -11.94,21.73 l -4.31,-3 5.17,-0.93 c 0.02,0.17 9.33,51.91 9.34,105.81 0,20.23 -1.3,40.78 -4.99,59.15 -3.7,18.36 -9.7,34.65 -19.76,46.25 -9.71,11.12 -18.62,27.65 -26.57,46.1 -11.96,27.69 -21.86,59.66 -30.7,84.87 -4.43,12.62 -8.58,23.54 -12.77,31.64 -2.11,4.06 -4.21,7.44 -6.65,10.1 -1.22,1.32 -2.55,2.49 -4.13,3.39 -1.56,0.9 -3.44,1.52 -5.44,1.52 -1.32,0 -2.65,-0.28 -3.85,-0.76 v 0 c -11.82,-4.84 -21.41,-14.53 -28.34,-22.92 -6.91,-8.4 -11.05,-15.62 -11.14,-15.79 l -0.69,-2.33 c -0.24,-4.38 -0.34,-8.71 -0.34,-12.98 0.06,-85.21 43.52,-147.75 43.78,-148.21 l 4.32,3 -5.24,0.37 c -2.39,-33.63 -6.99,-65.58 -10.98,-89.09 -2,-11.75 -3.85,-21.4 -5.2,-28.1 -1.34,-6.7 -2.18,-10.41 -2.18,-10.42 -0.64,-2.83 1.14,-5.64 3.97,-6.28 2.84,-0.63 5.65,1.14 6.28,3.98 v 0"
         style="fill:#17282f;fill-opacity:1;fill-rule:nonzero;stroke:none"
         id="path86" />
      <path
         d="m 2616.07,1809.32 c 0.01,0.01 2.27,1.14 6.39,3.14 14.42,7.02 51.34,24.59 90.65,40.37 19.65,7.88 39.91,15.32 58.19,20.75 18.25,5.45 34.62,8.84 45.92,8.81 3.91,0.01 7.19,-0.4 9.62,-1.12 9.01,-2.54 20.03,-12.17 31.07,-26.6 16.66,-21.58 33.72,-53.33 49.53,-85.38 15.84,-32.07 30.47,-64.45 42.73,-87.75 16.1,-30.59 25.36,-51.95 35.84,-71.28 10.47,-19.32 22.21,-36.48 42.71,-57.79 20.17,-20.95 31.62,-34.47 38.7,-46.73 7.07,-12.25 10.12,-23.54 13.34,-41.21 0.52,-2.86 3.25,-4.75 6.11,-4.23 2.85,0.52 4.75,3.25 4.23,6.11 -3.25,17.94 -6.68,30.94 -14.58,44.59 -7.9,13.63 -19.91,27.63 -40.22,48.76 -19.95,20.77 -30.88,36.79 -41.05,55.51 -10.16,18.72 -19.52,40.25 -35.78,71.16 -16.04,30.46 -36.72,77.88 -58.93,119.41 -11.12,20.77 -22.62,40.09 -34.3,55.25 -11.74,15.11 -23.47,26.33 -36.43,30.26 -3.78,1.11 -7.98,1.55 -12.59,1.55 -15.12,-0.03 -35.08,-4.79 -57.05,-11.75 -65.75,-20.92 -148.67,-62.37 -148.8,-62.42 -2.59,-1.3 -3.65,-4.46 -2.35,-7.05 1.3,-2.6 4.45,-3.65 7.05,-2.36"
         style="fill:#17282f;fill-opacity:1;fill-rule:nonzero;stroke:none"
         id="path88" />
      <path
         d="m 2875.25,1531.84 c 20.52,-20.17 32.57,-48.98 32.55,-77.76 l -0.01,-1.04 c -0.02,-2.9 2.31,-5.27 5.21,-5.3 2.91,-0.02 5.28,2.31 5.3,5.21 l 0.01,1.13 c -0.02,31.69 -13.11,63 -35.69,85.25 -2.07,2.04 -5.39,2.01 -7.43,-0.06 -2.03,-2.07 -2.01,-5.39 0.06,-7.43"
         style="fill:#17282f;fill-opacity:1;fill-rule:nonzero;stroke:none"
         id="path90" />
      <path
         d="m 3721.42,308.211 c -6.74,0 -13.76,1.359 -20.85,4.379 -30.77,13.101 -63.3,22.082 -96.48,26.43 -16.67,2.191 -33.48,3.062 -50.32,3.062 -31.93,0 -63.98,-3.113 -95.47,-6.223 -31.49,-3.109 -62.43,-6.218 -92.1,-6.218 -67.14,0 -127.86,15.91 -174.19,83.711 -85.31,124.867 -82.57,260.699 -235.93,332.339 -51.87,24.231 -126.03,61.68 -181.16,77.11 -63.84,17.859 -129.38,54.359 -143.46,123.508 -1.31,6.421 -1.95,12.91 -1.94,19.339 0.03,31.434 15.46,61.612 43.42,77.222 12.28,6.86 24.09,9.45 35.62,9.45 17.68,0 34.72,-6.09 51.81,-12.17 17.09,-6.08 34.24,-12.16 52.15,-12.16 15.67,0 31.93,4.66 49.24,18.07 31.16,24.13 47.5,62.29 47.5,101.59 0,2.1 -0.04,4.21 -0.14,6.32 -2.67,60.07 -34.77,114.06 -58.53,169.26 -14.35,33.33 -24.59,68.66 -24.57,103.88 0.01,23.33 4.53,46.61 15.34,69.24 3.14,6.57 6.88,13.13 12.66,17.56 4.32,3.3 8.81,4.7 13.38,4.7 8.8,0 17.92,-5.17 26.75,-11.88 8.8,-16.08 13.66,-34.37 13.65,-52.65 l -0.01,-1.04 c -0.02,-2.9 2.31,-5.27 5.21,-5.3 0.02,0 0.03,0 0.05,0 2.88,0 5.23,2.33 5.25,5.21 l 0.01,1.13 c -0.01,12.74 -2.13,25.42 -6.13,37.47 6.43,-5.58 12.41,-10.52 17.66,-13.04 4.09,-1.97 8.24,-2.84 12.42,-2.84 14.81,0 30.11,10.83 45.69,21.65 15.57,10.83 31.42,21.65 47.34,21.65 1.67,0 3.34,-0.12 5,-0.37 10.06,-1.5 18.61,-5.01 25.87,-10.74 0.43,-0.72 0.85,-1.42 1.26,-2.12 7.07,-12.25 10.12,-23.54 13.34,-41.21 0.46,-2.54 2.67,-4.32 5.16,-4.32 0.32,0 0.63,0.03 0.95,0.09 2.41,0.44 4.13,2.45 4.3,4.78 4.76,-16.35 7.99,-36.72 10.12,-61.52 17.47,30.99 42.21,45.17 62.86,45.17 18.83,0 34.26,-11.77 37.73,-33.31 12.47,-77.45 47.54,-192.73 52.61,-238.2 16.82,-150.59 115.68,-147.38 151.25,-294.661 44.78,-185.379 126.98,-281.489 231.36,-364.5 41.81,-33.227 72.79,-77.508 111.95,-113.809 4.36,-4.039 8.54,-8.5 12.52,-13.301 8.19,-9.859 11.74,-20.719 11.74,-31.238 -0.02,-26.871 -23.29,-51.5 -51.89,-51.5"
         style="fill:#cee979;fill-opacity:1;fill-rule:nonzero;stroke:none"
         id="path92" />
      <path
         d="m 3085.92,1460.21 c -2.49,0 -4.7,1.78 -5.16,4.32 -3.22,17.67 -6.27,28.96 -13.34,41.21 -0.41,0.7 -0.83,1.4 -1.26,2.12 11.11,-8.78 19.2,-22.78 25.01,-42.78 -0.17,-2.33 -1.89,-4.34 -4.3,-4.78 -0.32,-0.06 -0.63,-0.09 -0.95,-0.09"
         style="fill:#5fa030;fill-opacity:1;fill-rule:nonzero;stroke:none"
         id="path94" />
      <path
         d="m 2913.05,1447.74 c -0.02,0 -0.03,0 -0.05,0 -2.9,0.03 -5.23,2.4 -5.21,5.3 l 0.01,1.04 c 0.01,18.28 -4.85,36.57 -13.65,52.65 6.22,-4.72 12.3,-10.2 18.03,-15.18 4,-12.05 6.12,-24.73 6.13,-37.47 l -0.01,-1.13 c -0.02,-2.88 -2.37,-5.21 -5.25,-5.21"
         style="fill:#5fa030;fill-opacity:1;fill-rule:nonzero;stroke:none"
         id="path96" />
      <path
         d="m 278.492,230.73 c 0,0 159.66,-331.808 583.215,-199.6206 L 1124.56,594.559 c 0,0 218.49,155.39 318.23,208.961 99.75,53.57 215.94,109.089 234.33,138.23 18.39,29.148 95.93,235.37 103.1,286.43 7.16,51.08 15.47,85.62 24.04,124.33 8.58,38.71 7.15,96.93 -41.4,64.81 -48.54,-32.13 -83.29,-59.22 -100.41,-140.6 -17.11,-81.38 -105.13,-124.7 -105.13,-124.7 0,0 29.67,241.99 80.69,300.98 51.01,58.98 174.89,190.47 174.89,190.47 0,0 70.2,-57.44 118.5,-29.35 48.3,28.11 -95.96,186.27 -144.56,170.16 0,0 -27.59,-0.27 -48.59,-16.12 l -87,67.38 c 0,0 -50.62,52.74 -77.34,38.97 -26.7,-13.76 -69.09,-74.75 -69.09,-74.75 0,0 -57.29,73.2 -105.18,68.92 -47.89,-4.28 -115.62,-70.67 -138.1,-104.1 -22.47,-33.44 -82.11,-135.2 -96.76,-155.14 0,0 22.35,143.29 21.8,174.93 -0.53,31.64 7.28,142.15 -25.47,142.05 -32.75,-0.1 -50.1,-99.46 -67.14,-175.54 -17.04,-76.09 -26.39,-113.27 -48.82,-158.31 -22.41,-45.04 -103.224,-336.69 -103.224,-336.69 0,0 -97.375,-283.321 -122.707,-335.001 C 793.883,869.199 742.898,784.391 711.762,746.41 680.621,708.422 278.492,230.73 278.492,230.73"
         style="fill:#ffffff;fill-opacity:1;fill-rule:nonzero;stroke:none"
         id="path98" />
      <path
         d="m 1741.51,1772.28 c -0.03,0.02 -68.82,54.38 -130.9,100.39 -6.38,4.76 -13.51,7.12 -20.74,7.1 -9.11,-0.01 -18.1,-3.54 -27.01,-9.29 -15.58,-10.1 -31.36,-27.23 -47.65,-48.08 -24.39,-31.26 -49.74,-70.95 -74.78,-107.53 -25,-36.56 -49.84,-70.04 -72.26,-88.38 -38.94,-31.96 -64.43,-51.43 -83.04,-69.27 -18.62,-17.8 -30.28,-34.24 -40.46,-58.76 -1.12,-2.68 0.15,-5.76 2.83,-6.87 2.68,-1.12 5.75,0.15 6.87,2.83 9.82,23.47 20.15,38.02 38.03,55.22 17.88,17.16 43.38,36.68 82.44,68.72 18.41,15.13 37.2,38.43 56.32,64.94 28.62,39.75 57.81,86.78 85.46,123.65 13.81,18.43 27.25,34.3 39.78,45.35 12.55,11.12 24.08,17.04 33.47,16.96 5.02,-0.02 9.65,-1.48 14.48,-5.03 30.95,-22.94 63.62,-47.99 88.54,-67.31 12.46,-9.66 22.99,-17.88 30.4,-23.69 7.41,-5.81 11.69,-9.19 11.7,-9.2 2.28,-1.8 5.58,-1.41 7.38,0.87 1.8,2.27 1.41,5.58 -0.86,7.38"
         style="fill:#17282f;fill-opacity:1;fill-rule:nonzero;stroke:none"
         id="path100" />
      <path
         d="m 1436.73,1746.89 c -7.99,-23.82 -23.34,-64.63 -42.26,-93.76 -1.57,-2.43 -0.88,-5.69 1.55,-7.26 2.44,-1.58 5.69,-0.89 7.27,1.54 19.84,30.63 35.23,71.88 43.41,96.13 0.92,2.75 -0.56,5.73 -3.31,6.66 -2.75,0.92 -5.73,-0.56 -6.66,-3.31"
         style="fill:#17282f;fill-opacity:1;fill-rule:nonzero;stroke:none"
         id="path102" />
      <path
         d="m 1600.15,1650.48 c 6.88,26.24 10.35,53.36 10.35,80.47 0,8.95 -0.38,17.89 -1.14,26.8 -0.24,2.89 -2.79,5.04 -5.68,4.79 -2.89,-0.24 -5.03,-2.79 -4.79,-5.68 0.73,-8.61 1.1,-17.26 1.1,-25.91 0,-26.22 -3.36,-52.44 -10.01,-77.8 -0.73,-2.81 0.94,-5.68 3.75,-6.42 2.81,-0.73 5.68,0.95 6.42,3.75"
         style="fill:#17282f;fill-opacity:1;fill-rule:nonzero;stroke:none"
         id="path104" />
      <path
         d="m 1166.28,1603.38 c 0.01,0.15 25.53,141.71 25.56,237.96 -0.01,24.11 -1.57,45.37 -5.75,61.33 -2.11,7.98 -4.84,14.69 -8.76,19.86 -3.85,5.14 -9.41,8.78 -15.9,9.13 v 0 l -1.73,0.06 c -8.7,0.03 -16.36,-4.22 -22.4,-10.8 -10.62,-11.57 -18.03,-30.35 -24.56,-53.44 -9.69,-34.62 -16.87,-79 -25.09,-121.71 -8.18,-42.68 -17.49,-83.72 -30.79,-110.81 -10.82,-22.12 -24.1,-60.09 -39.1,-107.31 C 972.863,1386.16 913.113,1162.13 868.477,1050.59 808.691,901.129 777.313,841.961 733.672,782.609 722.906,767.949 687.871,725.191 641.656,669.672 572.285,586.32 477.484,473.898 400.027,382.309 361.301,336.52 326.91,295.941 302.199,266.801 289.848,252.238 279.914,240.531 273.066,232.469 266.223,224.41 262.477,220 262.465,219.988 c -1.879,-2.218 -1.61,-5.527 0.601,-7.406 2.215,-1.883 5.532,-1.613 7.411,0.598 0,0 106.871,125.781 219.242,259.039 56.183,66.633 113.742,135.133 160.011,190.722 46.301,55.629 81.192,98.188 92.411,113.438 44.324,60.25 76.273,120.703 136.093,270.301 30.075,75.21 66.559,199.66 100.871,316.23 17.153,58.26 33.745,114.53 48.675,161.56 14.91,47 28.23,84.89 38.52,105.87 10.81,22.11 18.71,51.44 25.55,83.17 10.24,47.56 18.01,100.52 28.37,141.23 5.16,20.34 11.02,37.61 17.8,49.3 3.38,5.85 6.97,10.26 10.58,13.06 3.63,2.8 7.11,4.08 11.1,4.11 l 1.09,-0.04 v 0 c 3.06,-0.23 5.46,-1.56 8.18,-5.02 4.01,-5.15 7.38,-15.06 9.4,-28.05 2.06,-13 2.96,-29.04 2.96,-46.76 0,-47.27 -6.34,-106.4 -12.69,-153.61 -3.18,-23.6 -6.36,-44.24 -8.74,-58.97 -2.38,-14.73 -3.96,-23.5 -3.96,-23.52 -0.52,-2.86 1.38,-5.59 4.24,-6.1 2.86,-0.52 5.59,1.38 6.1,4.24"
         style="fill:#17282f;fill-opacity:1;fill-rule:nonzero;stroke:none"
         id="path106" />
      <path
         d="m 1508.72,1803.28 c -0.12,0.13 -15.97,17.64 -38.2,35.28 -11.13,8.82 -23.84,17.68 -37.11,24.41 -13.27,6.72 -27.12,11.39 -40.68,11.41 -3.02,0 -6.04,-0.24 -9.01,-0.75 -26.93,-4.71 -55.66,-24.07 -85.45,-55.57 -29.77,-31.54 -60.57,-75.45 -90.83,-130.03 -59.95,-108.09 -111.38,-155.73 -155.01,-187.34 -23.55,-17.04 -33.02,-41.58 -38.87,-64.25 -5.76,-22.71 -8.62,-44.11 -16.544,-55.24 -1.653,-2.39 -1.059,-5.66 1.328,-7.32 2.386,-1.65 5.656,-1.05 7.316,1.33 10.13,14.95 12.29,36.7 18.07,58.6 5.69,21.94 14.27,43.47 34.87,58.37 44.66,32.28 97.58,81.62 158.03,190.75 29.94,54.03 60.36,97.29 89.28,127.92 28.9,30.68 56.37,48.49 79.6,52.42 2.34,0.4 4.75,0.6 7.22,0.6 11.08,0.02 23.56,-3.98 35.92,-10.27 18.56,-9.41 36.76,-23.79 50.19,-35.81 6.73,-6.01 12.27,-11.43 16.12,-15.32 1.93,-1.95 3.43,-3.53 4.44,-4.6 1.02,-1.08 1.52,-1.64 1.53,-1.64 1.94,-2.15 5.27,-2.32 7.42,-0.37 2.15,1.95 2.31,5.27 0.37,7.42"
         style="fill:#17282f;fill-opacity:1;fill-rule:nonzero;stroke:none"
         id="path108" />
      <path
         d="m 1214.07,1444.26 c -4.85,-16.44 -7.32,-33.58 -7.32,-50.72 v -0.72 c 0.02,-2.9 2.38,-5.25 5.28,-5.23 2.9,0.01 5.25,2.37 5.23,5.28 v 0.67 c 0,16.13 2.33,32.28 6.89,47.75 0.82,2.78 -0.77,5.7 -3.56,6.52 -2.78,0.83 -5.7,-0.77 -6.52,-3.55 v 0"
         style="fill:#17282f;fill-opacity:1;fill-rule:nonzero;stroke:none"
         id="path110" />
      <path
         d="m 857.93,10.4492 c 0.011,0.0196 3.781,8.1797 10.457,22.6016 23.367,50.4687 82.183,177.4612 138.363,298.2382 56.17,120.762 109.77,235.441 122.51,260.922 l -4.7,2.348 3.23,-4.137 c 0.03,0.019 8.38,6.547 22.34,17.187 41.86,31.922 134,100.661 199.57,138.903 43.79,25.539 117.16,63.457 184.15,99.847 33.5,18.211 65.42,36.039 91.34,51.821 25.95,15.84 45.75,29.371 55.76,39.968 10.08,10.852 19.82,29.903 29.71,53.543 14.75,35.399 29.3,80.889 41.57,121.699 12.26,40.78 22.27,76.99 27.68,93.2 7.57,22.75 9.4,44.57 12.15,67.67 2.74,23.13 6.34,47.63 17.13,76.41 6.04,16.15 8.95,30.18 8.96,41.99 0,11.31 -2.7,20.77 -8.42,27.57 -5.72,6.84 -14.35,10.35 -24.08,10.3 -8.28,-0.01 -17.49,-2.34 -27.56,-6.88 -23.75,-10.85 -45.93,-36.63 -64.01,-64.91 -18.01,-28.34 -31.61,-59.14 -36.74,-80.82 -2.06,-8.98 -9.5,-21.72 -19.63,-35.05 -15.18,-20.08 -36.2,-41.89 -53.37,-58.59 -8.59,-8.35 -16.22,-15.44 -21.7,-20.43 -5.48,-4.99 -8.77,-7.86 -8.78,-7.87 l 3.46,-3.96 5.22,-0.56 c 0,0.01 0.3,2.77 0.95,7.93 4.5,36.08 26.28,187.85 79.19,291.22 l -4.67,2.39 4,-3.41 c 0.02,0.03 8.55,10.06 21.98,25.61 20.14,23.32 51.25,59.01 80.84,91.57 14.79,16.28 29.2,31.79 41.65,44.55 12.42,12.76 22.97,22.83 29.64,28 l -3.22,4.15 -2.92,-4.37 c 0.14,-0.09 13.35,-8.91 31.95,-17.79 18.63,-8.85 42.53,-17.87 64.78,-17.92 9.54,0 18.86,1.7 27.15,6.09 5.82,3.08 10.27,6.92 13.23,11.5 2.96,4.57 4.29,9.77 4.27,15.01 -0.02,7.85 -2.74,15.81 -6.91,23.93 -12.57,24.19 -38.91,50.78 -58,72.63 -12.42,14.17 -28.22,28.31 -45.88,39.03 -17.66,10.69 -37.23,18.02 -57.19,18.04 -16.51,0.02 -33.22,-5.17 -48.41,-17.36 -24.61,-19.68 -78.94,-66.23 -136.67,-113.69 -57.67,-47.42 -118.83,-95.77 -156.18,-118.49 -37.98,-23.16 -57.27,-36.63 -69.36,-50.26 -6.03,-6.81 -10.11,-13.65 -13.51,-21.25 -3.4,-7.61 -6.17,-15.95 -9.82,-26.29 -0.97,-2.74 0.47,-5.74 3.21,-6.71 2.73,-0.96 5.74,0.47 6.7,3.21 3.68,10.44 6.41,18.6 9.51,25.5 4.67,10.34 9.94,18.02 21.37,27.93 11.42,9.86 29.02,21.64 57.36,38.89 38.45,23.43 99.54,71.81 157.39,119.36 57.8,47.51 112.27,94.16 136.56,113.59 13.46,10.73 27.49,15.03 41.85,15.06 17.32,0.01 35.2,-6.48 51.74,-16.52 16.53,-10.02 31.65,-23.51 43.43,-36.97 12.92,-14.74 28.75,-31.39 41.22,-47.43 6.23,-8.01 11.61,-15.86 15.34,-23.1 3.75,-7.23 5.77,-13.81 5.74,-19.1 -0.01,-3.56 -0.81,-6.53 -2.6,-9.31 -1.79,-2.78 -4.69,-5.46 -9.31,-7.91 -6.37,-3.38 -13.92,-4.87 -22.23,-4.87 -19.37,-0.05 -42.38,8.33 -60.25,16.9 -8.95,4.27 -16.65,8.55 -22.09,11.75 -2.72,1.61 -4.88,2.94 -6.34,3.87 -1.47,0.92 -2.21,1.42 -2.22,1.42 -1.87,1.25 -4.35,1.16 -6.13,-0.22 -9.99,-7.77 -25.62,-23.36 -43.89,-42.68 -54.66,-57.87 -131.76,-148.5 -131.79,-148.54 l -0.67,-1.01 c -30.93,-60.53 -51.14,-136.09 -63.74,-196.65 -12.58,-60.54 -17.49,-106.04 -17.5,-106.15 -0.23,-2.15 0.88,-4.23 2.8,-5.23 1.91,-0.99 4.25,-0.72 5.88,0.7 0.07,0.06 23.99,20.91 49.23,47.07 12.62,13.09 25.58,27.5 36.09,41.4 10.5,13.95 18.64,27.19 21.48,38.99 4.65,19.88 17.94,50.21 35.38,77.57 17.37,27.43 39.2,51.94 59.47,60.98 9.09,4.12 16.96,5.96 23.23,5.95 7.44,-0.06 12.42,-2.35 16.04,-6.57 3.61,-4.25 5.95,-11.09 5.95,-20.79 0.01,-10.06 -2.55,-23.01 -8.3,-38.3 -11.22,-29.91 -14.96,-55.53 -17.72,-78.86 -2.75,-23.35 -4.59,-44.32 -11.68,-65.59 -7.45,-22.34 -22.67,-79.01 -40.67,-135.14 -8.99,-28.03 -18.66,-55.89 -28.31,-79.04 -9.59,-23.128 -19.41,-41.671 -27.67,-50.39 -8.33,-8.949 -27.96,-22.629 -53.57,-38.18 C 1542.68,860.238 1410.69,794.238 1344.4,755.59 1255.82,703.891 1121.42,598.77 1121.32,598.699 l -1.46,-1.789 C 1105.09,567.371 1037.29,422 973.09,283.82 908.906,145.672 848.391,14.8711 848.391,14.8594 c -1.219,-2.6289 -0.071,-5.75002 2.562,-6.96877 2.637,-1.21875 5.758,-0.07032 6.977,2.55857"
         style="fill:#17282f;fill-opacity:1;fill-rule:nonzero;stroke:none"
         id="path112" />
      <path
         d="m 541.453,415.621 c -22,0 -38.109,18.57 -38.098,38.391 0.004,8.449 2.938,17.117 9.59,24.679 34.399,39.071 66.789,70.778 102.805,112.5 190.637,220.879 274.207,406.118 360.891,733.169 5.125,19.33 21.148,77.26 39.059,119.84 -0.77,-2.6 -1.48,-5.19 -2.14,-7.76 -5.76,-22.71 -8.62,-44.11 -16.544,-55.24 -1.653,-2.39 -1.059,-5.66 1.328,-7.32 0.914,-0.63 1.956,-0.93 2.986,-0.93 1.67,0 3.31,0.79 4.33,2.26 10.13,14.95 12.29,36.7 18.07,58.6 5.69,21.94 14.27,43.47 34.87,58.37 3.21,2.32 6.47,4.74 9.78,7.26 4.65,0.8 9.44,1.22 14.22,1.22 23.38,0 46.39,-10.1 50.51,-34.81 7.19,-43.18 6.89,-87.65 60.33,-98.02 v 0 0 c -0.07,2.74 -0.1,5.42 -0.1,8.05 0,64.61 20.27,95.91 59.74,98.15 2.92,0.5 5.72,0.74 8.42,0.74 39.2,0 56.39,-50.17 79.82,-98.97 0,22.84 2.6,45.25 7.83,64.32 0.15,-2.01 1.47,-3.83 3.49,-4.55 0.58,-0.2 1.17,-0.3 1.75,-0.3 2.16,0 4.19,1.35 4.95,3.51 3.68,10.44 6.41,18.6 9.51,25.5 4.67,10.34 9.94,18.02 21.37,27.93 0.62,0.53 1.26,1.07 1.91,1.62 1.52,0.21 3.06,0.31 4.64,0.31 3.86,0 7.92,-0.62 12.18,-1.93 60.44,-18.57 73.96,-94.9 73.97,-147.21 0,-11.39 -0.64,-21.63 -1.57,-29.9 -7.15,-63.35 -64.85,-122.46 -64.87,-185.38 0,-3.57 0.18,-7.16 0.57,-10.75 1.65,-15.17 7.55,-29.89 18.02,-40.98 11.12,-11.8 25.55,-16.04 41.64,-16.04 20.54,0.01 43.79,6.91 66.34,13.81 22.55,6.9 44.39,13.79 62.12,13.79 14.65,0 26.49,-4.71 33.59,-18.04 8.91,-14.09 12.77,-28.06 12.77,-41.72 0,-55.552 -64.01,-105.731 -112.83,-136.239 -60.82,-38.02 -129.49,-79.66 -194.7,-109.531 -79.83,-36.559 -177.02,-101.461 -234.17,-169.161 -41.62,-49.281 -25.59,-152.879 -106.4,-152.867 -3.31,0 -6.793,0.168 -10.442,0.528 -18.156,1.789 -35.531,8.3 -51.289,17.511 -27.98,16.34 -57.301,22.789 -87.508,22.789 -97.461,0 -204.175,-67.179 -305.035,-86.461 -2.633,-0.507 -5.207,-0.738 -7.703,-0.738 M 1214.07,1444.26 c -4.85,-16.44 -7.32,-33.58 -7.32,-50.72 v -0.72 c 0.02,-2.9 2.37,-5.23 5.26,-5.23 0.01,0 0.01,0 0.02,0 2.9,0.01 5.25,2.37 5.23,5.28 v 0.67 c 0,16.13 2.33,32.28 6.89,47.75 0.82,2.78 -0.77,5.7 -3.56,6.52 -0.49,0.15 -0.99,0.22 -1.49,0.22 -2.26,0 -4.36,-1.48 -5.03,-3.77 v 0"
         style="fill:#cee979;fill-opacity:1;fill-rule:nonzero;stroke:none"
         id="path114" />
      <path
         d="m 1001.33,1372.95 c -1.03,0 -2.072,0.3 -2.986,0.93 -2.387,1.66 -2.981,4.93 -1.328,7.32 7.924,11.13 10.784,32.53 16.544,55.24 0.66,2.57 1.37,5.16 2.14,7.76 9.71,23.09 19.98,41.67 29.37,47.12 6.62,3.85 14.72,6.63 23.31,8.12 -3.31,-2.52 -6.57,-4.94 -9.78,-7.26 -20.6,-14.9 -29.18,-36.43 -34.87,-58.37 -5.78,-21.9 -7.94,-43.65 -18.07,-58.6 -1.02,-1.47 -2.66,-2.26 -4.33,-2.26"
         style="fill:#5fa030;fill-opacity:1;fill-rule:nonzero;stroke:none"
         id="path116" />
      <path
         d="m 1212.01,1387.59 c -2.89,0 -5.24,2.33 -5.26,5.23 v 0.72 c 0,17.14 2.47,34.28 7.32,50.72 v 0 c 0.67,2.29 2.77,3.77 5.03,3.77 0.5,0 1,-0.07 1.49,-0.22 2.79,-0.82 4.38,-3.74 3.56,-6.52 -4.56,-15.47 -6.89,-31.62 -6.89,-47.75 v -0.67 c 0.02,-2.91 -2.33,-5.27 -5.23,-5.28 -0.01,0 -0.01,0 -0.02,0"
         style="fill:#5fa030;fill-opacity:1;fill-rule:nonzero;stroke:none"
         id="path118" />
      <path
         d="m 1354.39,1435.27 c -0.58,0 -1.17,0.1 -1.75,0.3 -2.02,0.72 -3.34,2.54 -3.49,4.55 8.06,29.44 22.36,50.91 42.98,53.71 -0.65,-0.55 -1.29,-1.09 -1.91,-1.62 -11.43,-9.91 -16.7,-17.59 -21.37,-27.93 -3.1,-6.9 -5.83,-15.06 -9.51,-25.5 -0.76,-2.16 -2.79,-3.51 -4.95,-3.51"
         style="fill:#5fa030;fill-opacity:1;fill-rule:nonzero;stroke:none"
         id="path120" />
      <path
         d="m 3191.34,1427.15 c 7.29,-14.61 11.12,-30.99 11.12,-47.34 0,-3.06 -0.14,-6.11 -0.41,-9.16 -0.25,-2.89 1.88,-5.44 4.77,-5.7 2.9,-0.25 5.45,1.88 5.7,4.77 0.3,3.36 0.45,6.73 0.45,10.09 -0.01,17.98 -4.19,35.93 -12.22,52.03 -1.3,2.6 -4.45,3.65 -7.05,2.36 -2.6,-1.3 -3.65,-4.45 -2.36,-7.05"
         style="fill:#17282f;fill-opacity:1;fill-rule:nonzero;stroke:none"
         id="path122" />
      <path
         d="m 2750.51,1747.36 -50.76,-13.19 c -2.81,-0.73 -4.49,-3.6 -3.76,-6.41 0.73,-2.81 3.6,-4.49 6.41,-3.76 l 50.75,13.19 c 2.81,0.73 4.49,3.6 3.76,6.41 -0.73,2.81 -3.6,4.49 -6.4,3.76"
         style="fill:#17282f;fill-opacity:1;fill-rule:nonzero;stroke:none"
         id="path124" />
      <path
         d="m 3073.95,1416.47 c 5.33,-10.45 8.09,-22.25 8.09,-34.02 0,-5.76 -0.66,-11.5 -1.98,-17.08 -0.68,-2.82 1.07,-5.66 3.89,-6.33 2.82,-0.67 5.66,1.07 6.33,3.89 1.52,6.4 2.27,12.96 2.27,19.52 0,13.41 -3.12,26.8 -9.23,38.79 -1.32,2.59 -4.49,3.62 -7.07,2.3 -2.59,-1.32 -3.62,-4.48 -2.3,-7.07"
         style="fill:#17282f;fill-opacity:1;fill-rule:nonzero;stroke:none"
         id="path126" />
    </g>
  </g>
</svg>
