<?xml version="1.0" encoding="UTF-8" standalone="no"?>
<!-- Created with Inkscape (http://www.inkscape.org/) -->

<svg
   version="1.1"
   id="svg2"
   width="546.90668"
   height="548.73334"
   viewBox="0 0 546.90668 548.73334"
   sodipodi:docname="9264884.eps"
   xmlns:inkscape="http://www.inkscape.org/namespaces/inkscape"
   xmlns:sodipodi="http://sodipodi.sourceforge.net/DTD/sodipodi-0.dtd"
   xmlns="http://www.w3.org/2000/svg"
   xmlns:svg="http://www.w3.org/2000/svg">
  <defs
     id="defs6" />
  <sodipodi:namedview
     id="namedview4"
     pagecolor="#ffffff"
     bordercolor="#000000"
     borderopacity="0.25"
     inkscape:showpageshadow="2"
     inkscape:pageopacity="0.0"
     inkscape:pagecheckerboard="0"
     inkscape:deskcolor="#d1d1d1" />
  <g
     id="g8"
     inkscape:groupmode="layer"
     inkscape:label="ink_ext_XXXXXX"
     transform="matrix(1.3333333,0,0,-1.3333333,0,548.73333)">
    <g
       id="g10"
       transform="scale(0.1)">
      <path
         d="M 2170.09,3575.72 C 2897.11,3160.57 3221.38,2199.25 2894.35,1428.56 2567.32,657.871 1712.84,369.641 985.82,784.801 258.797,1199.95 -65.4648,2161.26 261.563,2931.95 588.59,3702.64 1443.07,3990.87 2170.09,3575.72"
         style="fill:#f3f2fa;fill-opacity:1;fill-rule:nonzero;stroke:none"
         id="path12" />
      <path
         d="m 3617.71,244.59 c 0,-62.391 -272.75,-112.969 -609.2,-112.969 -336.45,0 -609.19,50.578 -609.19,112.969 0,62.402 272.74,112.98 609.19,112.98 336.45,0 609.2,-50.578 609.2,-112.98"
         style="fill:#d9d8e8;fill-opacity:1;fill-rule:nonzero;stroke:none"
         id="path14" />
      <path
         d="M 2387.41,1483.77 H 101.578 C 45.4805,1483.77 0,1529.25 0,1585.35 v 1436.98 c 0,56.1 45.4805,101.58 101.578,101.58 H 2387.41 c 56.1,0 101.57,-45.48 101.57,-101.58 V 1585.35 c 0,-56.1 -45.47,-101.58 -101.57,-101.58"
         style="fill:#c8d7f1;fill-opacity:1;fill-rule:nonzero;stroke:none"
         id="path16" />
      <path
         d="M 2387.41,3123.91 H 101.578 C 45.4766,3123.91 0,3078.43 0,3022.33 v -99.84 h 2488.98 v 99.84 c 0,56.1 -45.47,101.58 -101.57,101.58"
         style="fill:#6576c3;fill-opacity:1;fill-rule:nonzero;stroke:none"
         id="path18" />
      <path
         d="m 2112.09,3020 c 0,-19.86 -16.1,-35.97 -35.97,-35.97 -19.86,0 -35.96,16.11 -35.96,35.97 0,19.87 16.1,35.97 35.96,35.97 19.87,0 35.97,-16.1 35.97,-35.97 z"
         style="fill:none;stroke:#040606;stroke-width:10;stroke-linecap:butt;stroke-linejoin:round;stroke-miterlimit:10;stroke-dasharray:none;stroke-opacity:1"
         id="path20" />
      <path
         d="m 2246.59,3020 c 0,-19.86 -16.11,-35.97 -35.97,-35.97 -19.87,0 -35.97,16.11 -35.97,35.97 0,19.87 16.1,35.97 35.97,35.97 19.86,0 35.97,-16.1 35.97,-35.97 z"
         style="fill:none;stroke:#040606;stroke-width:10;stroke-linecap:butt;stroke-linejoin:round;stroke-miterlimit:10;stroke-dasharray:none;stroke-opacity:1"
         id="path22" />
      <path
         d="m 2381.08,3020 c 0,-19.86 -16.1,-35.97 -35.97,-35.97 -19.86,0 -35.97,16.11 -35.97,35.97 0,19.87 16.11,35.97 35.97,35.97 19.87,0 35.97,-16.1 35.97,-35.97 z"
         style="fill:none;stroke:#040606;stroke-width:10;stroke-linecap:butt;stroke-linejoin:round;stroke-miterlimit:10;stroke-dasharray:none;stroke-opacity:1"
         id="path24" />
      <path
         d="m 1020.59,2621.22 c -28.363,0 -55.828,18.95 -77.61,37.12 l -26.523,22.13 c -16.402,13.69 -35.891,21.03 -55.855,21.03 H 634.355 c -20.531,0 -37.171,-16.65 -37.171,-37.18 V 2621.22 1831 c 0,-27.56 22.336,-49.9 49.89,-49.9 H 1789.15 c 27.56,0 49.9,22.34 49.9,49.9 v 740.32 c 0,27.56 -22.34,49.9 -49.9,49.9 h -768.56"
         style="fill:#6576c3;fill-opacity:1;fill-rule:nonzero;stroke:none"
         id="path26" />
      <path
         d="m 1748.09,2461.35 h -323.07 c -14.41,0 -26.08,11.68 -26.08,26.08 v 0 c 0,14.41 11.67,26.08 26.08,26.08 h 323.07 c 14.41,0 26.08,-11.67 26.08,-26.08 v 0 c 0,-14.4 -11.67,-26.08 -26.08,-26.08 z"
         style="fill:none;stroke:#040606;stroke-width:10;stroke-linecap:butt;stroke-linejoin:miter;stroke-miterlimit:10;stroke-dasharray:none;stroke-opacity:1"
         id="path28" />
      <path
         d="m 3673.69,2683.47 c 0,0 57.35,-134.9 64.76,-174.04 22.66,-119.8 130.33,-449.26 166.75,-490.54 0,0 68,-7.29 102,12.14 0,0 -85,539.11 -121.43,611.97 -36.42,72.85 -60.71,191.85 -60.71,191.85 l -151.37,-151.38"
         style="fill:#cd6143;fill-opacity:1;fill-rule:nonzero;stroke:none"
         id="path30" />
      <path
         d="m 3998.89,2049.76 c -37.61,31.29 -113.5,12.72 -126.73,-34.39 -10.77,-38.34 -11.15,-59.94 -12.13,-66.48 -1.9,-12.78 -48.44,-91.95 -39.53,-108.18 6.45,-11.76 39.36,25.19 55.83,51.14 3.39,5.34 11.58,3.3 12.14,-3.01 3.12,-35.22 10.04,-105.67 16.11,-114.42 8.13,-11.74 37.69,-61.42 46.47,-56.03 8.77,5.38 -1.07,39.98 -8.78,63.13 -7.7,23.14 1.79,74.66 1.79,74.66 0,0 39.05,-117.55 55.59,-138.78 24.64,-31.62 32.84,19.99 32.84,19.99 14.78,-16.17 29.14,22.32 26.58,34.41 -5.05,23.9 -42.06,108.52 -35.51,105.42 6.55,-3.1 48.29,-92.5 67.24,-95.11 18.95,-2.62 9.78,29.65 -0.85,51 -10.63,21.36 -39.42,82.84 -39.42,82.84 0,0 -9.64,58.22 -45.42,120.8 -0.29,0.5 -5.77,12.64 -6.22,13.01"
         style="fill:#cd6143;fill-opacity:1;fill-rule:nonzero;stroke:none"
         id="path32" />
      <path
         d="m 4031.71,1740.22 -51.27,119.22"
         style="fill:none;stroke:#040606;stroke-width:10;stroke-linecap:round;stroke-linejoin:miter;stroke-miterlimit:10;stroke-dasharray:none;stroke-opacity:1"
         id="path34" />
      <path
         d="m 3646.65,2908.11 -536.74,21.92 v 791.95 l 282.52,40.78 254.22,-854.65"
         style="fill:#040606;fill-opacity:1;fill-rule:nonzero;stroke:none"
         id="path36" />
      <path
         d="m 3384.05,3769.5 c 0,0 104.89,-246.55 194.79,-578.93"
         style="fill:none;stroke:#040606;stroke-width:10;stroke-linecap:round;stroke-linejoin:miter;stroke-miterlimit:10;stroke-dasharray:none;stroke-opacity:1"
         id="path38" />
      <path
         d="m 2434.61,2785.32 c 0,0 126.29,-56.13 419.21,164.88 l -124.53,138.57 -294.68,-303.45"
         style="fill:#cd6143;fill-opacity:1;fill-rule:nonzero;stroke:none"
         id="path40" />
      <path
         d="m 3354.6,3343.11 c 5.34,0.93 38.16,-29.8 43.97,-33.35 55.88,-34.13 102.21,-39.09 165.29,-51.08 124.39,-23.66 212.11,-221.94 224.76,-263.36 14.94,-48.95 40.9,-133.13 55.85,-182.08 0,0 -24.52,-136.22 -182.03,-133.16 l -78.93,168.39 c 0,0 -89.46,-201.72 -94.72,-217.5 -5.26,-15.79 54.37,-212.24 54.37,-212.24 0,0 -470.08,-180.67 -743.71,-83.32 0,0 92.81,354.62 67.87,366.13 -23.61,10.9 -72.65,53.58 -13.5,248.66 0,0 -99.1,57.89 -122.78,210.49 0,0 128.92,119.27 210.49,121.9 81.54,2.63 412.95,60.5 413.07,60.52"
         style="fill:#7ccf7f;fill-opacity:1;fill-rule:nonzero;stroke:none"
         id="path42" />
      <path
         d="m 3157.27,3207.61 c 0,0 34.21,-90.77 138.13,-39.47 85.61,42.26 114.04,111.18 121.42,134.21 -35.72,20.39 -62.22,40.76 -62.22,40.76 0,0 -145.68,-25.43 -267.66,-43.35 -6.6,-13.69 -65.49,-141.99 70.33,-92.15"
         style="fill:#ffffff;fill-opacity:1;fill-rule:nonzero;stroke:none"
         id="path44" />
      <path
         d="m 3345.39,3512.81 9.21,-169.7 c 0,0 -78.93,-119.72 -173.65,-106.56 l -18.41,107.87 182.85,168.39"
         style="fill:#cd6143;fill-opacity:1;fill-rule:nonzero;stroke:none"
         id="path46" />
      <path
         d="m 3185,1546.97 56.43,-710.388 12.31,-463.934 c 0,0 102.44,-66.257 155.24,30.821 0,0 94.68,481.492 84.05,647.011 -10.63,165.53 8.04,360.37 8.04,360.37 L 3185,1546.97"
         style="fill:#cd6143;fill-opacity:1;fill-rule:nonzero;stroke:none"
         id="path48" />
      <path
         d="m 2784.33,443.68 c 0,0 -289.35,-249.078 -263.31,-249.078 26.04,0 149.01,17.539 228.59,36.839 79.57,19.289 111.4,70.161 111.4,70.161 l 5.78,-49.114 54.98,7.012 c 0,0 62.21,131.559 18.81,205.23 -43.41,73.668 -156.25,-21.05 -156.25,-21.05"
         style="fill:#040606;fill-opacity:1;fill-rule:nonzero;stroke:none"
         id="path50" />
      <path
         d="m 2824.84,289.32 41.95,-36.832 20.26,62.274 -32.55,7.886 -29.66,-33.328"
         style="fill:#040606;fill-opacity:1;fill-rule:nonzero;stroke:none"
         id="path52" />
      <path
         d="m 3253.36,434.031 c 0,0 -108.08,-323.422 -71.61,-327.57 69.44,-7.8907 153.71,68.848 179.76,117.961 26.04,49.117 23.14,126.289 23.14,126.289 l -24.59,-57.879 h 50.64 c 0,0 27.48,26.309 5.78,152.598 0,0 -163.12,-160.051 -163.12,-11.399"
         style="fill:#040606;fill-opacity:1;fill-rule:nonzero;stroke:none"
         id="path54" />
      <path
         d="m 2806.03,1569.77 -21.7,-1126.09 c 0,0 99.82,-68.41 156.25,21.05 0,0 112.84,452.54 108.5,610.4 -4.34,157.87 21.71,342.04 21.71,342.04 l -264.76,152.6"
         style="fill:#cd6143;fill-opacity:1;fill-rule:nonzero;stroke:none"
         id="path56" />
      <path
         d="m 2846.81,2548.53 c 0,0 126.29,-231.54 668.29,-31.58 0,0 210.48,-547.26 47.36,-1157.66 0,0 -463.07,-215.75 -905.09,42.09 0,0 73.67,757.75 189.44,1147.15"
         style="fill:#040606;fill-opacity:1;fill-rule:nonzero;stroke:none"
         id="path58" />
      <path
         d="m 2853.82,3322.06 c 0,0 -400.79,-282.4 -430.61,-331.51 -29.82,-49.12 -92.09,-161.38 -4.39,-203.47 87.7,-42.1 435.88,341.16 520.08,470.96 l -85.08,64.02"
         style="fill:#cd6143;fill-opacity:1;fill-rule:nonzero;stroke:none"
         id="path60" />
      <path
         d="m 2492.49,2801.11 c 0,0 124.98,67.97 274.07,238.11"
         style="fill:none;stroke:#040606;stroke-width:10;stroke-linecap:round;stroke-linejoin:miter;stroke-miterlimit:10;stroke-dasharray:none;stroke-opacity:1"
         id="path62" />
      <path
         d="m 2874.59,2697 c 0,0 331.8,-159 537.02,16.41"
         style="fill:none;stroke:#040606;stroke-width:10;stroke-linecap:round;stroke-linejoin:miter;stroke-miterlimit:10;stroke-dasharray:none;stroke-opacity:1"
         id="path64" />
      <path
         d="m 3583.51,2848.47 -71.42,111.89"
         style="fill:none;stroke:#040606;stroke-width:10;stroke-linecap:round;stroke-linejoin:miter;stroke-miterlimit:10;stroke-dasharray:none;stroke-opacity:1"
         id="path66" />
      <path
         d="m 2853.82,2950.2 40.35,80.69"
         style="fill:none;stroke:#040606;stroke-width:10;stroke-linecap:round;stroke-linejoin:miter;stroke-miterlimit:10;stroke-dasharray:none;stroke-opacity:1"
         id="path68" />
      <path
         d="m 3069.68,3411.83 c -22.54,2.15 -44.01,-21.47 -52.6,-18.78 -6.84,2.13 -16.05,34.56 -19.52,47.65 13.02,76.07 4.08,135.07 -13.75,119.26 -0.96,-0.85 -2.07,-2.62 -3.25,-4.9 -2.63,24.13 -9.48,36.2 -18.76,27.98 -2.54,-2.25 -6.14,-10.7 -9.38,-19.43 -2.79,22.73 -9.52,33.85 -18.53,25.87 -4.43,-3.93 -12.08,-26.63 -15.38,-36.93 -1.78,2.18 -4.39,3.09 -7.69,4.19 -12.89,4.29 -42.58,-106.98 -44.01,-112.71 -1.43,-5.72 -32.92,-130.24 -32.92,-130.24 -11.45,-45.08 78.53,-65.77 105.01,-55.75 26.47,10.01 86.77,75.07 86.77,75.07 -0.07,0.12 -0.16,0.24 -0.24,0.35 2.09,3.02 5.12,7.6 9.36,14.5 9.13,14.85 55.28,52.06 56.36,55.28 1.07,3.22 1.07,6.44 -21.47,8.59"
         style="fill:#cd6143;fill-opacity:1;fill-rule:nonzero;stroke:none"
         id="path70" />
      <path
         d="m 3091.15,3403.24 c 1.07,3.22 1.07,6.44 -21.47,8.59 -22.54,2.15 -44.01,-21.47 -52.6,-18.78 -6.84,2.13 -16.05,34.56 -19.52,47.65 13.02,76.07 4.08,135.07 -13.75,119.26 -0.96,-0.85 -2.07,-2.62 -3.25,-4.9 -2.63,24.13 -9.48,36.2 -18.76,27.98 -2.54,-2.25 -6.14,-10.7 -9.38,-19.43 -1.31,10.64 -3.5,18.59 -6.36,23.38 -2.94,-77.65 5.65,-195.38 74.59,-259.19 3.12,3.27 5.02,5.31 5.02,5.31 -0.07,0.12 -0.16,0.24 -0.24,0.35 2.09,3.02 5.12,7.6 9.36,14.5 9.13,14.85 55.28,52.06 56.36,55.28"
         style="fill:#040606;fill-opacity:1;fill-rule:nonzero;stroke:none"
         id="path72" />
      <path
         d="m 3325,3480.58 20.39,32.23 -182.85,-168.38 13.95,-81.71 c 75.93,12.4 111.48,135.08 148.51,217.86"
         style="fill:#040606;fill-opacity:1;fill-rule:nonzero;stroke:none"
         id="path74" />
      <path
         d="m 2975.62,3671.15 c 0,0 -54.08,-307.4 124.27,-369.49 178.34,-62.09 241.08,231.25 241.46,334.08 0.38,102.83 -47.47,156.74 -174.46,169.59 -187.87,19.01 -191.27,-134.18 -191.27,-134.18"
         style="fill:#cd6143;fill-opacity:1;fill-rule:nonzero;stroke:none"
         id="path76" />
      <path
         d="m 3380.96,3789.79 c -36.49,52.79 -90.09,81.83 -224.5,79.39 -102.29,-1.86 -166.51,-70.17 -188.33,-105.63 -7.08,-11.5 -24.55,-43.96 9.1,-78.82 0,0 1.12,24.65 23.87,52.1 0,0 212.88,-115.38 297.94,-98.44 l 20.28,-79.77 c 0,0 28.79,40.84 58.35,54.05 0,0 39.78,124.32 3.29,177.12"
         style="fill:#040606;fill-opacity:1;fill-rule:nonzero;stroke:none"
         id="path78" />
      <path
         d="m 3414.74,3535.95 c -13.85,-40.13 -47.74,-65.05 -75.7,-55.66 -27.96,9.38 -39.4,49.52 -25.55,89.65 13.85,40.12 47.74,65.04 75.7,55.66 27.96,-9.39 39.4,-49.53 25.55,-89.65"
         style="fill:#cd6143;fill-opacity:1;fill-rule:nonzero;stroke:none"
         id="path80" />
      <path
         d="m 3152,3539.3 c -0.17,-10.55 -5.74,-19.04 -12.45,-18.94 -6.71,0.09 -12.01,8.73 -11.85,19.28 0.17,10.56 5.74,19.04 12.45,18.94 6.71,-0.09 12.01,-8.72 11.85,-19.28"
         style="fill:#040606;fill-opacity:1;fill-rule:nonzero;stroke:none"
         id="path82" />
      <path
         d="m 3011.35,3539.74 c 0.4,-9.93 -4.19,-18.18 -10.25,-18.43 -6.06,-0.25 -11.29,7.59 -11.68,17.52 -0.39,9.93 4.2,18.18 10.25,18.43 6.06,0.25 11.29,-7.59 11.68,-17.52"
         style="fill:#040606;fill-opacity:1;fill-rule:nonzero;stroke:none"
         id="path84" />
      <path
         d="m 3197.39,3620.05 c 0,0 -48.77,-7.19 -49.02,38.65"
         style="fill:none;stroke:#040606;stroke-width:10;stroke-linecap:round;stroke-linejoin:miter;stroke-miterlimit:10;stroke-dasharray:none;stroke-opacity:1"
         id="path86" />
      <path
         d="m 3034.64,3634.37 c 0,0 -15.01,-41.61 -49.58,-14.71"
         style="fill:none;stroke:#040606;stroke-width:10;stroke-linecap:round;stroke-linejoin:miter;stroke-miterlimit:10;stroke-dasharray:none;stroke-opacity:1"
         id="path88" />
      <path
         d="m 3149.39,3369.14 c 0,0 20.06,63.59 66.87,23.35 l -66.87,-23.35"
         style="fill:#040606;fill-opacity:1;fill-rule:nonzero;stroke:none"
         id="path90" />
      <path
         d="m 3388.5,3573.38 c 0,0 -30.21,29.6 -50.96,-19.6 0,0 17.4,-21.05 4.6,-35.86 0,0 18.15,-5.37 28.3,10.29"
         style="fill:none;stroke:#040606;stroke-width:10;stroke-linecap:round;stroke-linejoin:round;stroke-miterlimit:10;stroke-dasharray:none;stroke-opacity:1"
         id="path92" />
      <path
         d="m 3373.39,3555.02 c 0,0 -1.05,11.3 -12.65,24.86"
         style="fill:none;stroke:#040606;stroke-width:10;stroke-linecap:round;stroke-linejoin:round;stroke-miterlimit:10;stroke-dasharray:none;stroke-opacity:1"
         id="path94" />
      <path
         d="m 3029.73,3500.45 c -6.51,-7.24 -8.35,-16.25 -5.95,-26.29 2.36,-9.91 11.88,-16.45 21.92,-16.9"
         style="fill:none;stroke:#040606;stroke-width:10;stroke-linecap:round;stroke-linejoin:miter;stroke-miterlimit:10;stroke-dasharray:none;stroke-opacity:1"
         id="path96" />
      <path
         d="m 3361.18,3480.25 c 0,-15.07 -12.22,-27.3 -27.3,-27.3 -15.07,0 -27.29,12.23 -27.29,27.3 0,15.08 12.22,27.3 27.29,27.3 15.08,0 27.3,-12.22 27.3,-27.3"
         style="fill:#ffffff;fill-opacity:1;fill-rule:nonzero;stroke:none"
         id="path98" />
      <path
         d="m 2902.94,3276.45 c 0,0 10.52,-22.8 35.96,-18.41"
         style="fill:none;stroke:#040606;stroke-width:10;stroke-linecap:round;stroke-linejoin:miter;stroke-miterlimit:10;stroke-dasharray:none;stroke-opacity:1"
         id="path100" />
      <path
         d="m 2918.51,3552.55 c 0,0 19.07,-10.14 -11.84,-119.33 0,0 19.07,-69.06 13.81,-82.22 -5.26,-13.16 -31.57,-35.08 -39.47,-35.96"
         style="fill:none;stroke:#040606;stroke-width:10;stroke-linecap:round;stroke-linejoin:miter;stroke-miterlimit:10;stroke-dasharray:none;stroke-opacity:1"
         id="path102" />
      <path
         d="m 2972.22,3384.33 c 0,0 -26.31,-29.82 -27.18,-71.04"
         style="fill:none;stroke:#040606;stroke-width:10;stroke-linecap:round;stroke-linejoin:miter;stroke-miterlimit:10;stroke-dasharray:none;stroke-opacity:1"
         id="path104" />
      <path
         d="m 2952.42,3563.61 c 0,0 6.21,-83.69 -6.95,-129.07"
         style="fill:none;stroke:#040606;stroke-width:10;stroke-linecap:round;stroke-linejoin:miter;stroke-miterlimit:10;stroke-dasharray:none;stroke-opacity:1"
         id="path106" />
      <path
         d="M 2117.61,70.3516 C 2117.61,31.5 2027.08,0 1915.41,0 c -111.67,0 -202.19,31.5 -202.19,70.3516 0,38.8594 90.52,70.3474 202.19,70.3474 111.67,0 202.2,-31.488 202.2,-70.3474"
         style="fill:#d9d8e8;fill-opacity:1;fill-rule:nonzero;stroke:none"
         id="path108" />
      <path
         d="m 1910.88,1116.78 c 0,0 -61.15,-5.72 -40.34,152.6 19.76,150.4 95.59,260.04 101.38,260.48 0,0 109.04,-156.41 40.69,-292.05 -68.35,-135.65 -101.73,-121.03 -101.73,-121.03"
         style="fill:#63a368;fill-opacity:1;fill-rule:nonzero;stroke:none"
         id="path110" />
      <path
         d="m 2411.36,1345.66 c 0,0 -140.06,-167.87 -480.95,-286.13 0,0 -2.1,44.75 115.79,153.05 117.89,108.31 381.48,184.47 365.16,133.08"
         style="fill:#63a368;fill-opacity:1;fill-rule:nonzero;stroke:none"
         id="path112" />
      <path
         d="m 2411.36,1345.66 c 0,0 -267.07,-41.91 -480.95,-286.13 0,0 -21.01,-26.72 -23.62,-84.171"
         style="fill:none;stroke:#040606;stroke-width:10;stroke-linecap:round;stroke-linejoin:miter;stroke-miterlimit:10;stroke-dasharray:none;stroke-opacity:1"
         id="path114" />
      <path
         d="m 1406.3,1020.73 c 0,0 140.06,-167.871 480.95,-286.14 0,0 2.1,44.75 -115.79,153.058 -117.88,108.301 -381.48,184.462 -365.16,133.082"
         style="fill:#63a368;fill-opacity:1;fill-rule:nonzero;stroke:none"
         id="path116" />
      <path
         d="m 1406.3,1020.73 c 0,0 267.07,-41.921 480.95,-286.14 0,0 21.01,-26.711 23.62,-84.168"
         style="fill:none;stroke:#040606;stroke-width:10;stroke-linecap:round;stroke-linejoin:miter;stroke-miterlimit:10;stroke-dasharray:none;stroke-opacity:1"
         id="path118" />
      <path
         d="m 1595.49,677.078 c 0,0 93.16,-76.156 295.31,-15.199 0,0 -2.6,38.961 -78.22,75.07 -75.62,36.11 -230.64,-23.988 -217.09,-59.871"
         style="fill:#63a368;fill-opacity:1;fill-rule:nonzero;stroke:none"
         id="path120" />
      <path
         d="m 1595.49,677.078 c 0,0 154.08,90.813 295.31,-15.199 0,0 14.11,-12.731 20.44,-60.238"
         style="fill:none;stroke:#040606;stroke-width:10;stroke-linecap:round;stroke-linejoin:miter;stroke-miterlimit:10;stroke-dasharray:none;stroke-opacity:1"
         id="path122" />
      <path
         d="m 2375.36,1077.56 c 0,0 -97.88,-263.388 -438.77,-381.662 0,0 -11.75,148.68 106.14,256.993 117.89,108.299 348.94,176.059 332.63,124.669"
         style="fill:#63a368;fill-opacity:1;fill-rule:nonzero;stroke:none"
         id="path124" />
      <path
         d="m 2375.36,1077.56 c 0,0 -248.76,-53.17 -438.77,-381.662 0,0 -21.81,-39.488 -24.42,-96.949"
         style="fill:none;stroke:#040606;stroke-width:10;stroke-linecap:round;stroke-linejoin:miter;stroke-miterlimit:10;stroke-dasharray:none;stroke-opacity:1"
         id="path126" />
      <path
         d="m 1852.53,1036.05 c 0,0 -28.67,-46.62 -141.63,-32.1 -112.95,14.52 -235.06,148.78 -311.32,124.4 0,0 187.55,67.24 452.95,-92.3"
         style="fill:#63a368;fill-opacity:1;fill-rule:nonzero;stroke:none"
         id="path128" />
      <path
         d="m 1931.2,396.32 c -27.97,233.84 -39.86,515.11 -7.12,818.81 0,0 4.35,80.56 47.84,314.73"
         style="fill:none;stroke:#040606;stroke-width:10;stroke-linecap:round;stroke-linejoin:miter;stroke-miterlimit:10;stroke-dasharray:none;stroke-opacity:1"
         id="path130" />
      <path
         d="m 1422.89,1134.42 c 0,0 189.64,45.98 429.64,-98.37 58.14,-34.97 55.5,-100.902 51.79,-152.28"
         style="fill:none;stroke:#040606;stroke-width:10;stroke-linecap:round;stroke-linejoin:miter;stroke-miterlimit:10;stroke-dasharray:none;stroke-opacity:1"
         id="path132" />
      <path
         d="m 1694.02,493.031 65.76,-404.8122 c 0,-24.7969 70.15,-44.9102 156.68,-44.9102 86.53,0 156.68,20.1133 156.68,44.9102 l 65.77,404.8122 h -444.89"
         style="fill:#4c5db4;fill-opacity:1;fill-rule:nonzero;stroke:none"
         id="path134" />
      <path
         d="m 2138.91,493.031 c 0,-24.801 -99.6,-44.91 -222.45,-44.91 -122.85,0 -222.44,20.109 -222.44,44.91 0,24.809 99.59,44.918 222.44,44.918 122.85,0 222.45,-20.109 222.45,-44.918"
         style="fill:#040606;fill-opacity:1;fill-rule:nonzero;stroke:none"
         id="path136" />
      <path
         d="m 2161.06,4115.34 c 170,-4.64 310.66,-140.81 320.45,-310.59 5.75,-99.84 -32.94,-190.69 -98.05,-254.79 -9.62,-9.47 -14.1,-22.97 -11.85,-36.28 l 24.46,-144.7 -150.45,87.66 c -8.58,5 -18.67,6.82 -28.39,4.86 -36.78,-7.41 -75.75,-8.78 -115.91,-2.7 -148.64,22.52 -264.59,145.57 -278.3,295.27 -18.27,199.53 141.09,366.63 338.04,361.27"
         style="fill:#c8d7f1;fill-opacity:1;fill-rule:nonzero;stroke:none"
         id="path138" />
      <path
         d="m 2139.97,3751.46 c -0.35,9.43 -0.7,19.1 -1.04,29 -0.35,9.89 -0.61,19.79 -0.78,29.68 -0.18,9.9 -0.1,20.02 0.26,30.38 v 120.57 h 11.46 l 0.52,-120.57 c 0,-10.36 -0.09,-20.48 -0.26,-30.38 -0.18,-9.89 -0.44,-19.79 -0.78,-29.68 -0.35,-9.9 -0.7,-19.57 -1.05,-29 z m 2.81,-113.72 c -4.57,0 -8.07,1.45 -10.51,4.34 -2.44,2.89 -3.65,6.92 -3.65,12.1 0,4.87 1.29,8.83 3.88,11.87 2.58,3.05 6.01,4.58 10.28,4.58 4.86,0 8.45,-1.45 10.73,-4.34 2.29,-2.9 3.43,-6.93 3.43,-12.11 0,-4.57 -1.23,-8.45 -3.66,-11.64 -2.44,-3.2 -5.93,-4.8 -10.5,-4.8"
         style="fill:#040606;fill-opacity:1;fill-rule:nonzero;stroke:none"
         id="path140" />
      <g
         id="g142"
         transform="scale(10)">
        <text
           xml:space="preserve"
           transform="matrix(1,0,0,-1,83.9238,211.313)"
           style="font-variant:normal;font-weight:300;font-size:18.1198px;font-family:Lexend;-inkscape-font-specification:Lexend-Light;writing-mode:lr-tb;fill:#040606;fill-opacity:1;fill-rule:nonzero;stroke:none"
           id="text146"><tspan
             x="0 14.260283 25.259001 30.332033 43.795044 55.02932 61.661167"
             y="0"
             sodipodi:role="line"
             id="tspan144">No Data</tspan></text>
      </g>
    </g>
  </g>
</svg>
